<?xml version="1.0" standalone="no"?>
<!DOCTYPE svg PUBLIC "-//W3C//DTD SVG 1.1//EN" "http://www.w3.org/Graphics/SVG/1.1/DTD/svg11.dtd" >
<svg xmlns="http://www.w3.org/2000/svg">
<metadata></metadata>
<defs>
<font id="street_corner_semiboldregular" horiz-adv-x="1139" >
<font-face units-per-em="2048" ascent="1638" descent="-410" />
<missing-glyph horiz-adv-x="686" />
<glyph horiz-adv-x="2048" />
<glyph horiz-adv-x="2048" />
<glyph unicode="&#xd;" horiz-adv-x="686" />
<glyph unicode=" "  horiz-adv-x="686" />
<glyph unicode="&#x09;" horiz-adv-x="686" />
<glyph unicode="&#xa0;" horiz-adv-x="686" />
<glyph unicode="!" horiz-adv-x="569" d="M168 1406q-6 44 41 69q38 20 85 20q116 0 121 -83q-59 -470 -59 -915q0 -73 3 -130q-5 -38 -68 -38q-59 0 -64 38q2 58 2 117q0 424 -61 922zM180 105q0 47 32 80t79 33t80 -33t33 -80q0 -133 -113 -133q-111 0 -111 133z" />
<glyph unicode="&#x22;" horiz-adv-x="727" d="M86 1423q54 43 117 43q60 0 114 -43l-39 -185q-21 -103 -21 -193q0 -38 5 -71q-6 -34 -67 -34q-49 0 -59 33q2 194 -50 450zM416 1423q54 43 117 43q60 0 114 -43l-39 -185q-21 -103 -21 -193q0 -38 5 -71q-6 -34 -67 -34q-49 0 -59 33q2 194 -50 450z" />
<glyph unicode="#" horiz-adv-x="1240" d="M43 583q0 81 76 81h194l50 238h-203q-84 0 -84 77q0 37 23.5 66t60.5 29h238l37 203q17 58 85 58q28 0 56 -12q35 -15 35 -40q0 -5 -2 -9l-36 -200h208l37 203q12 67 95 67t83 -56q0 -7 -3 -14l-36 -200h163q35 0 58 -31q20 -28 20 -64q0 -77 -78 -77h-198l-51 -238h208 q37 0 63 -27t26 -64q0 -81 -89 -81h-243l-51 -209q-22 -53 -106 -53q-70 0 -70 45q0 6 2 13l49 204h-207l-51 -208q-22 -58 -94 -58q-82 0 -82 50q0 6 2 12l49 204h-158q-76 0 -76 91zM488 664h207l51 238h-208z" />
<glyph unicode="$" horiz-adv-x="1103" d="M80 383q-6 66 89 66q66 0 72 -49q20 -148 191 -210l-2 288q-1 73 89 73q91 0 106 -75l3 -307q134 17 192 113q31 52 31 118q0 131 -133 194q-46 22 -220 71q-144 41 -217 87q-169 108 -169 317q0 249 201 350q55 28 117 40v100q-1 73 89 73q91 0 106 -75l1 -96 q204 -30 296 -198q46 -85 46 -172q0 -59 -93 -59q-63 0 -71 44q-32 171 -175 203l2 -200q-8 -75 -98 -75q-98 0 -98 78l-2 193q-157 -44 -157 -194q0 -104 97 -159q41 -24 178 -61q187 -51 261 -92q204 -113 204 -354q0 -117 -54 -216q-103 -190 -332 -214l1 -116 q-8 -75 -98 -75q-98 0 -98 78l-1 123q-207 41 -302 217q-45 84 -52 171z" />
<glyph unicode="%" horiz-adv-x="1821" d="M112 1110q0 159 76 264q85 117 239 117q164 0 250 -118q77 -104 77 -274q0 -164 -79 -270q-88 -120 -246 -120q-162 0 -246 124q-71 107 -71 277zM284 1092q0 -246 148 -246q150 0 150 260q0 247 -150 247q-148 0 -148 -261zM362 402q0 34 28 56l919 718q18 14 42 14 q41 0 70 -35.5t29 -76.5q0 -32 -22 -56l-920 -719q-19 -12 -41 -12q-44 0 -74.5 33.5t-30.5 77.5zM1060 348q0 161 75 264q85 116 241 116q164 0 250 -118q77 -104 77 -273q0 -165 -79 -272q-87 -119 -247 -119q-161 0 -245 125q-72 108 -72 277zM1232 330q0 -246 148 -246 q151 0 151 260q0 247 -150 247q-149 0 -149 -261z" />
<glyph unicode="&#x26;" horiz-adv-x="1366" d="M81 407q0 144 129 280q103 108 259 186q-97 20 -153 105q-51 78 -51 182q0 149 113 243q106 88 258 88q150 0 247 -82q102 -87 102 -235q0 -189 -184 -298l-335 -198q-176 -104 -176 -260q0 -115 75 -193t189 -78q197 0 313 185q76 122 131 359q11 49 87 49q43 0 76 -18 q41 -23 41 -62q0 -53 -37 -164q-35 -107 -65 -157l130 -124q108 -101 108 -133q0 -42 -34.5 -83t-76.5 -41q-22 0 -128 98q-17 16 -121 113q-179 -194 -426 -194q-199 0 -332 115q-139 121 -139 317zM465 1177q0 -191 158 -191q20 0 42 4q75 54 84 64q37 41 37 115 q0 72 -43.5 116.5t-115.5 44.5t-117 -41.5t-45 -111.5z" />
<glyph unicode="'" horiz-adv-x="351" d="M86 1423q54 43 117 43q60 0 114 -43l-39 -185q-21 -103 -21 -193q0 -38 5 -71q-6 -34 -67 -34q-49 0 -59 33q2 194 -50 450z" />
<glyph unicode="(" horiz-adv-x="682" d="M127 531q0 531 306 917q47 59 114 59q74 0 74 -48q0 -10 -7 -20q-152 -260 -215 -433q-82 -229 -82 -476q0 -409 313 -905q4 -5 4 -11q0 -23 -36 -38q-28 -11 -50 -11q-58 0 -99 51q-322 406 -322 915z" />
<glyph unicode=")" horiz-adv-x="682" d="M127 -386q0 6 3 11q152 241 223 431q91 237 91 474q0 249 -82 476q-62 171 -216 433q-6 10 -6 20q0 48 73 48q67 0 114 -59q307 -386 307 -917q0 -509 -323 -915q-41 -51 -98 -51q-86 0 -86 49z" />
<glyph unicode="*" horiz-adv-x="797" d="M83 1065q0 11 1 28q119 44 206 88q-87 44 -206 87q-1 17 -1 29q0 90 86 125l102 -98q40 -37 70 -60q-7 108 -32 244q39 35 84 35q43 0 82 -35l-27 -142q-10 -54 -13 -96q83 60 180 152q87 -35 87 -124q0 -12 -2 -30q-77 -25 -224 -87q55 -27 224 -88q2 -17 2 -29 q0 -89 -87 -124q-97 92 -180 152q7 -63 40 -239q-39 -34 -82 -34q-45 0 -84 34q25 136 32 244q-47 -39 -172 -157q-86 35 -86 125z" />
<glyph unicode="+" horiz-adv-x="1196" d="M87 715q0 98 57 98h362v356q0 57 93 57q92 0 92 -57v-356h361q50 0 50 -93q0 -87 -50 -87h-361v-359q0 -54 -91 -54q-94 0 -94 54v359h-362q-57 0 -57 82z" />
<glyph unicode="," horiz-adv-x="569" d="M159 -232q0 11 5 29q101 43 111 182q-45 4 -75.5 37.5t-30.5 78.5q0 48 34 81.5t83 33.5q50 0 83.5 -34t33.5 -82q-1 -3 -3 -18q-8 -108 -11 -133q-12 -84 -35 -125q-40 -69 -133 -108q-62 7 -62 58z" />
<glyph unicode="-" horiz-adv-x="851" d="M60 725q0 96 55 96h623q67 0 67 -93q0 -88 -67 -88h-623q-55 0 -55 85z" />
<glyph unicode="." horiz-adv-x="569" d="M169 99q0 46 34 78.5t83 32.5t83 -32.5t34 -78.5q0 -48 -34.5 -80t-82.5 -32q-50 0 -83.5 32.5t-33.5 79.5z" />
<glyph unicode="/" horiz-adv-x="569" d="M-72 -25q0 6 2 10l541 1501q18 51 88 51q82 0 82 -46q0 -6 -2 -10l-540 -1502q-19 -41 -91 -41q-80 0 -80 37z" />
<glyph unicode="0" d="M78 723q0 749 485 749q486 0 486 -749q0 -748 -486 -748q-485 0 -485 748zM278 723q0 -51 1 -98l541 432q-61 253 -259 253q-121 0 -192 -101q-91 -130 -91 -486zM305 397q60 -261 258 -261q286 0 286 587q0 56 -3 106z" />
<glyph unicode="1" horiz-adv-x="759" d="M133 1129q0 19 12 30l289 254q72 63 118 63q47 0 75 -59v-1390q0 -49 -99 -49q-96 0 -96 49v1131l-158 -144q-13 -12 -29 -12q-41 0 -76.5 43t-35.5 84z" />
<glyph unicode="2" d="M68 0l676 842q3 7 11 15q82 113 82 209q0 111 -80 179q-76 65 -189 65q-134 0 -206.5 -75.5t-72.5 -208.5q0 -58 -97 -58q-110 0 -103 77q17 209 145 319q125 108 338 108q202 0 328 -102q137 -111 137 -308q0 -92 -48 -199q-50 -111 -120 -163l-410 -514h542 q60 0 60 -93t-60 -93h-933z" />
<glyph unicode="3" d="M89 306q0 41 46 69q40 23 84 23q56 0 68 -39q68 -223 266 -223q132 0 213.5 82t81.5 214q0 129 -82 205q-79 73 -210 76q-46 1 -91 26q-52 30 -52 72q0 46 77 45q122 -1 201 55q91 63 91 180q0 102 -65 161t-168 59q-188 0 -245 -189q-28 -38 -67 -38q-43 0 -73.5 34.5 t-30.5 77.5q0 17 7 33q119 243 405 243q117 0 217 -48q108 -52 165 -146q55 -89 55 -191q0 -239 -168 -287q62 -13 99 -43q16 -12 70 -86q71 -95 71 -235q0 -212 -147 -340q-140 -122 -355 -122q-192 0 -324 114q-101 86 -135 196q-4 14 -4 22z" />
<glyph unicode="4" horiz-adv-x="1175" d="M26 400q0 49 47 122l447 898q38 56 117 52l138 -7q99 -5 99 -63l-1 -877h220q57 0 57 -90q0 -88 -57 -88h-220v-300q0 -72 -99 -72q-96 0 -96 72v300h-599q-53 0 -53 53zM278 525h400v807z" />
<glyph unicode="5" d="M124 236q0 42 34.5 69.5t77.5 27.5q52 0 81 -41q23 -51 49 -79q73 -77 190 -77q140 0 225 106q78 98 78 241q0 144 -81 231q-82 91 -225 91q-204 0 -261 -138q-36 -40 -72 -41q-48 0 -72 61q-17 45 -17 102q0 28 3 52l78 605h776q74 0 74 -99q0 -95 -74 -86h-608 l-47 -367q128 83 268 83q210 0 337 -133.5t127 -344.5q0 -199 -118 -345q-144 -179 -391 -179q-198 0 -327 108q-63 53 -100 124q-5 15 -5 29z" />
<glyph unicode="6" d="M87 463q0 12 1.5 37t1.5 37v403q0 21 -1 62t-1 62q0 417 323 417h510q54 -7 54 -87q0 -84 -55 -91h-474q-169 0 -169 -226q0 -23 3.5 -68.5t3.5 -68.5v-51q123 78 285 78q231 0 357.5 -130t126.5 -361q0 -260 -160 -386q-133 -105 -324 -105q-225 0 -353.5 126.5 t-128.5 351.5zM284 433q0 -104 64 -194q76 -105 221 -105q147 0 222 102q66 89 66 240t-67 241q-75 102 -221 102q-150 0 -224 -109q-61 -91 -61 -199v-78z" />
<glyph unicode="7" d="M66 1350q0 97 61 97h919q57 0 57 -36t-51 -150h-1l-564 -1238q-24 -40 -72 -40q-41 0 -75 25q-37 28 -37 68q0 14 6 28l521 1157h-703q-61 0 -61 89z" />
<glyph unicode="8" d="M76 427q0 110 44 216q54 129 144 156q-68 25 -103 125q-26 76 -26 166q0 177 128 283q120 99 300 99q181 0 303 -101q131 -108 131 -286q0 -91 -33 -170q-41 -96 -115 -121q102 -31 159 -151q49 -101 49 -221q0 -211 -143 -332q-134 -115 -348 -115q-216 0 -350 117 q-140 122 -140 335zM276 426q0 -132 79.5 -211t212.5 -79q130 0 210 77.5t80 206.5q0 135 -82 222.5t-216 87.5q-128 0 -208 -89q-76 -86 -76 -215zM334 1096q0 -105 63.5 -170.5t169.5 -65.5q101 0 165.5 63t64.5 163q0 101 -65 163t-167 62q-96 0 -162 -59 q-69 -61 -69 -156z" />
<glyph unicode="9" d="M87 990q0 260 159 386q133 105 324 105q225 0 354 -126.5t129 -351.5q0 -12 -1.5 -37t-1.5 -37v-403q0 -21 1 -62t1 -62q0 -417 -324 -417h-510q-53 7 -53 87q0 84 54 91h474q170 0 170 226q0 23 -3.5 68.5t-3.5 68.5v51q-124 -78 -286 -78q-231 0 -357 130t-126 361z M283 990q0 -150 65 -240q75 -103 222 -103q150 0 224 109q62 91 62 199v79q0 103 -65 193q-76 105 -221 105q-147 0 -222 -102q-65 -89 -65 -240z" />
<glyph unicode=":" horiz-adv-x="471" d="M119 105q0 49 34 83t83 34t83 -34t34 -83t-34 -83.5t-83 -34.5q-50 0 -83.5 34t-33.5 84zM119 953q0 49 34 83t83 34t83 -34t34 -83t-34 -83.5t-83 -34.5q-50 0 -83.5 34t-33.5 84z" />
<glyph unicode=";" horiz-adv-x="480" d="M119 -231q0 12 5 30q100 44 111 185q-46 4 -76 38t-30 80q0 50 33.5 83.5t83.5 33.5t83.5 -34t33.5 -84q-1 -3 -3 -18q-8 -110 -11 -136q-12 -85 -35 -127q-40 -71 -133 -110q-62 7 -62 59zM129 953q0 50 33.5 83.5t83.5 33.5q49 0 83 -34t34 -83t-34 -83.5t-83 -34.5 q-50 0 -83.5 34t-33.5 84z" />
<glyph unicode="&#x3c;" horiz-adv-x="1036" d="M46 727q0 58 63 87l771 354q8 4 16 4q29 0 48 -31q17 -26 17 -56q0 -72 -75 -106l-555 -255l555 -258q78 -36 78 -113q0 -82 -60 -82q-12 0 -24 6l-772 359q-62 37 -62 91z" />
<glyph unicode="=" horiz-adv-x="1196" d="M37 529q0 91 77 91h968q63 0 63 -87q0 -91 -63 -91h-968q-77 0 -77 87zM37 919q0 91 77 91h968q63 0 63 -87q0 -91 -63 -91h-968q-77 0 -77 87z" />
<glyph unicode="&#x3e;" horiz-adv-x="1036" d="M46 353q0 77 77 113l555 258l-555 255q-73 34 -73 106q0 30 15 56q19 31 48 31q8 0 16 -4l771 -354q64 -29 64 -87q0 -54 -63 -91l-772 -359q-12 -6 -23 -6q-60 0 -60 82z" />
<glyph unicode="?" d="M83 1066q55 425 482 425q196 0 330 -102q149 -113 149 -301q0 -115 -68 -213q-46 -67 -156 -163q-70 -61 -92 -88q-73 -83 -77 -231q-1 -55 -95 -55q-92 0 -92 55v25q0 180 102 302q28 32 134 127q72 64 100 101q44 60 44 128q0 112 -81.5 183t-194.5 71 q-237 0 -286 -288q-8 -48 -87 -48q-40 0 -74 15q-43 21 -38 57zM452 101q0 47 32.5 80t79.5 33t79.5 -33t32.5 -80t-32.5 -80t-79.5 -33q-48 0 -80 32.5t-32 80.5z" />
<glyph unicode="@" horiz-adv-x="2079" d="M182 474q-10 190 80 370q246 486 940 486q468 0 693 -281q105 -131 112 -291q12 -231 -166 -419t-410 -200q-134 -7 -181 56q-11 15 -19 46q-106 -77 -259 -77q-273 0 -366 212q-44 101 -25 229q40 276 266 385q124 60 243 54l468 -23l-107 -729q8 -15 40 -14 q22 1 142 76q90 57 160 183q60 106 54 215q-16 282 -353 398q-146 50 -311 50q-233 0 -422 -81q-212 -92 -326 -272q-103 -163 -94 -353q21 -392 432 -504q162 -44 353 -44q550 0 766 269q56 70 124 70q72 0 72 -50q0 -9 -5 -18q-59 -107 -198 -201q-298 -201 -775 -201 q-382 0 -619 145q-292 178 -309 514zM772 538q0 -82 34 -143q56 -101 199 -101q131 0 216 86q79 80 99 213q34 229 34 277q0 19 -6 19q0 2 -7.5 2.5t-42.5 2.5q-90 5 -232 16q-143 -30 -194 -87q-76 -82 -96 -220q-4 -35 -4 -65z" />
<glyph unicode="A" horiz-adv-x="1366" d="M-4 23q0 4 1 8l536 1371q31 63 130 63q107 0 133 -63l573 -1376q2 -4 2 -8q0 -24 -51 -35q-37 -8 -68 -8q-92 0 -118 45l-202 538h-523l-192 -532q-16 -45 -123 -45q-98 0 -98 42zM476 729h395l-206 482z" />
<glyph unicode="B" horiz-adv-x="1366" d="M143 0v1466h557q321 0 435 -183q59 -93 59 -196q0 -203 -193 -306q264 -87 264 -353q0 -428 -556 -428h-566zM352 186h357q93 0 131 7q209 37 209 235q0 169 -153 219q-72 23 -213 23h-331v-484zM352 856h309q128 0 183 17q144 43 144 192q0 155 -130 195q-62 20 -221 20 h-285v-424z" />
<glyph unicode="C" horiz-adv-x="1479" d="M95 744q0 474 340 659q163 88 359 88q369 0 527 -285q8 -14 8 -32q0 -46 -37.5 -77t-83.5 -31q-50 0 -73 43q-108 203 -345 203q-337 0 -435 -290q-45 -136 -45 -277q0 -393 220 -524q113 -67 245 -67q284 0 387 250q20 73 85 73q46 0 81.5 -34t35.5 -79q0 -22 -7 -37 q-159 -352 -566 -352q-457 0 -618 377q-78 184 -78 392z" />
<glyph unicode="D" horiz-adv-x="1441" d="M151 0v1466h492q172 0 263 -21q237 -55 354 -267q98 -179 98 -437q0 -263 -98 -443q-162 -298 -593 -298h-516zM360 186h285q253 0 354 100q144 142 144 458q0 410 -255 507q-76 29 -248 29h-280v-1094z" />
<glyph unicode="E" horiz-adv-x="1242" d="M81 0v1466h1017q69 0 69 -96q0 -90 -69 -90h-808v-430h593q82 0 82 -96q0 -89 -82 -89h-593v-479h812q89 0 89 -88q0 -40 -25 -69t-64 -29h-1021z" />
<glyph unicode="F" horiz-adv-x="1251" d="M161 47v1419h996q68 0 68 -93t-68 -93h-787v-435h610q77 0 77 -91q0 -95 -77 -95h-610v-612q0 -73 -103 -73q-106 0 -106 73z" />
<glyph unicode="G" horiz-adv-x="1593" d="M102 726q0 211 83 387q93 196 267 288q170 90 391 90q337 0 495 -196q37 -46 59 -94q7 -14 7 -33q0 -44 -33 -73t-77 -29q-46 0 -66 37q-109 209 -384 209q-250 0 -380 -143q-147 -162 -147 -431q0 -385 259 -512q128 -63 271 -63q107 0 223 39q121 41 198 107v290h-424 q-84 0 -84 92q0 96 89 96l623 -2l2 -758q-8 -72 -97 -72q-99 0 -106 72v48q-200 -100 -413 -100q-215 0 -386 87q-187 94 -280 273q-90 175 -90 391z" />
<glyph unicode="H" horiz-adv-x="1479" d="M157 47v1352q0 68 99 68q110 0 110 -68v-499h727v499q0 63 107 63q102 0 102 -63v-1352q0 -66 -113 -66q-96 0 -96 66v667h-727v-667q0 -69 -109 -69q-100 0 -100 69z" />
<glyph unicode="I" horiz-adv-x="444" d="M118 47v1352q0 39 39 62q33 18 75 18q95 0 95 -80v-1352q0 -66 -105 -66q-104 0 -104 66z" />
<glyph unicode="J" horiz-adv-x="1024" d="M127 130q0 23 16 52q32 56 73 62q168 -70 310 -70q13 0 26 1q91 4 125 64q28 46 28 146q0 12 4 39t3 41l-4 57v883q0 58 97 58q107 0 107 -58v-883q0 -21 1 -62t1 -62q0 -179 -52 -275q-36 -64 -128 -106q-83 -37 -218 -37q-265 0 -374 115q-15 16 -15 35z" />
<glyph unicode="K" horiz-adv-x="1366" d="M143 37v1362q0 66 108 66q101 0 101 -66v-642l652 638q74 72 171 72q33 0 68 -11q46 -15 46 -41q0 -9 -10 -18l-640 -631l673 -702q9 -9 9 -20q0 -30 -45 -47q-34 -12 -70 -12q-94 0 -160 69l-553 573l-141 -139v-451q0 -54 -113 -54q-96 0 -96 54z" />
<glyph unicode="L" d="M143 0v1389q0 39 38 61q32 18 73 18q98 0 98 -79v-1203h654q77 0 77 -99q0 -87 -77 -87h-863z" />
<glyph unicode="M" horiz-adv-x="1706" d="M145 47v1352q0 70 103 70q150 0 224 -122l389 -815l387 798q65 133 210 133q101 0 101 -64v-1352q0 -73 -103 -73q-99 0 -99 73v1054l-416 -832q-38 -56 -94 -56t-94 56l-406 852v-1074q0 -68 -103 -68q-99 0 -99 68z" />
<glyph unicode="N" horiz-adv-x="1479" d="M149 67v1342q0 67 64 67q96 0 196 -134l709 -951v1018q0 75 96 75q105 0 105 -75v-1352q0 -62 -59 -62q-99 0 -236 182l-674 899v-1009q0 -35 -41 -58q-35 -20 -73 -20q-87 0 -87 78z" />
<glyph unicode="O" horiz-adv-x="1593" d="M92 714q0 347 175 555q189 223 534 223q203 0 365 -93q167 -96 255 -272t88 -396q0 -212 -84 -383q-91 -187 -265 -282q-167 -91 -360 -91q-205 0 -368 96q-168 98 -256 278q-84 172 -84 365zM307 711q0 -245 121 -395q131 -162 371 -162q247 0 377 172q118 154 118 406 q0 363 -234 509q-114 71 -258 71q-256 0 -384 -179q-111 -156 -111 -422z" />
<glyph unicode="P" horiz-adv-x="1295" d="M151 57v1409h490q142 0 224 -14q219 -37 305 -212q45 -91 45 -201q0 -449 -557 -449h-298v-534q-9 -72 -89 -72q-36 0 -76 18q-44 21 -44 49v6zM360 776h301q339 0 339 257q0 83 -42 146q-44 67 -122 88q-47 13 -179 13h-297v-504z" />
<glyph unicode="Q" horiz-adv-x="1593" d="M92 713q0 347 175 555q189 224 534 224q203 0 365 -93q167 -96 255 -272.5t88 -396.5q0 -225 -94 -403q37 -81 37 -185v-369q-6 -54 -85 -54q-92 0 -90 54l7 379q-196 -179 -484 -179q-205 0 -368 96q-168 98 -256 278q-84 172 -84 366zM307 710q0 -61 7 -116q4 1 9 2 h582q215 0 359 -94q30 101 30 229q0 364 -234 509q-114 72 -258 72q-256 0 -384 -180q-111 -156 -111 -422zM373 402q22 -44 56 -85q134 -165 370 -165q256 0 380 176q-9 6 -23 13q-115 61 -251 61h-532z" />
<glyph unicode="R" horiz-adv-x="1366" d="M151 27v1439h500q142 0 224 -14q219 -37 305 -212q45 -91 45 -201q0 -256 -181 -366q157 -103 157 -285v-363q0 -54 -101 -54q-99 0 -104 54v355q0 42 -37 104q-64 106 -229 107q-2 -2 -7 -4q-4 2 -6 4q-24 -1 -49 -1h-308v-563q0 -59 -107 -59q-102 0 -102 59zM360 776 h311q339 0 339 257q0 83 -42 146q-44 67 -122 88q-47 13 -179 13h-307v-504z" />
<glyph unicode="S" horiz-adv-x="1366" d="M102 384v6q0 29 39 46q33 15 71 15q79 0 87 -50q22 -133 187 -196q112 -43 222 -43q229 0 317 120q40 54 40 119q0 135 -168 198q-68 26 -274 73q-180 42 -271 89q-211 111 -211 323q0 121 69 217q67 93 182 140q122 50 272 50q347 0 485 -208q57 -85 57 -177 q1 -29 -45 -46q-34 -14 -70 -14q-75 0 -85 45q-50 216 -334 216q-130 0 -215 -41q-114 -54 -114 -170q0 -106 121 -162q51 -24 223 -62q235 -53 325 -94q255 -116 255 -361q0 -127 -74 -231q-149 -211 -476 -211q-395 0 -550 234q-56 84 -65 175z" />
<glyph unicode="T" horiz-adv-x="1251" d="M94 1371q0 95 54 95h962q49 0 49 -102q0 -84 -49 -84h-377v-1253q0 -49 -107 -49q-102 0 -102 49v1253h-376q-54 0 -54 91z" />
<glyph unicode="U" horiz-adv-x="1479" d="M154 620v769q-1 8 -1 15q0 69 98 69q42 0 74 -20q38 -24 38 -64v-768q0 -158 20 -233q63 -225 341 -225q232 0 317 116q72 98 72 342v768q0 38 38 60q31 19 72 19q99 0 99 -79v-769q0 -201 -39 -316q-110 -329 -542 -329q-414 0 -531 279q-56 135 -56 366z" />
<glyph unicode="V" horiz-adv-x="1366" d="M28 1428q0 55 98 55h4q89 -1 125 -64l436 -1118l415 1116q36 63 107 63q32 0 65 -14q43 -18 43 -45q0 -6 -3 -10l-535 -1357q-28 -72 -111 -72q-73 0 -102 72l-539 1359q-3 9 -3 15z" />
<glyph unicode="W" horiz-adv-x="1933" d="M46 1433q0 50 97 50q104 0 118 -59l265 -1064l321 854q24 63 126 63q98 0 122 -63l315 -845l265 1055q14 58 105 58q33 0 64 -11q43 -15 43 -41q0 -6 -3 -11l-369 -1374q-17 -65 -94 -65q-82 0 -107 64l-353 902l-342 -902q-25 -67 -114 -67q-81 0 -98 68l-359 1375 q-2 9 -2 13z" />
<glyph unicode="X" horiz-adv-x="1366" d="M40 36q0 11 6 20l521 708l-457 646q-4 6 -4 13q0 27 45 43q35 12 68 12q91 0 134 -60l344 -472l370 488q35 47 130 47q99 0 99 -40q0 -8 -6 -15l-483 -652l513 -722q6 -9 6 -17q0 -57 -116 -57q-97 0 -142 66l-385 558l-392 -554q-47 -67 -148 -67q-103 0 -103 55z" />
<glyph unicode="Y" horiz-adv-x="1366" d="M42 1438q0 32 42 53q34 16 70 16q94 0 140 -77l375 -618l392 610q51 81 150 81q98 0 98 -60q0 -14 -10 -29l-526 -814v-563q0 -60 -107 -60q-102 0 -102 60v563l-519 823q-3 8 -3 15z" />
<glyph unicode="Z" horiz-adv-x="1310" d="M40 53q0 48 73 137q151 182 408 544q270 378 405 546h-812q-61 0 -61 88q0 91 61 98h1060q75 0 75 -48q0 -44 -69 -135l-823 -1097h831q83 0 83 -88q0 -98 -83 -98h-1069q-79 0 -79 53z" />
<glyph unicode="[" horiz-adv-x="539" d="M132 -407v1873h304q50 0 50 -81q0 -82 -50 -82h-109v-1547h109q50 0 50 -85q0 -78 -50 -78h-304z" />
<glyph unicode="\" horiz-adv-x="569" d="M-72 1491q0 46 82 46q70 0 88 -51l541 -1501q2 -4 2 -10q0 -37 -80 -37q-72 0 -91 41l-540 1503q-2 5 -2 9z" />
<glyph unicode="]" horiz-adv-x="539" d="M132 -329q0 85 49 85h110v1547h-110q-49 0 -49 82q0 81 49 81h305v-1873h-305q-49 0 -49 78z" />
<glyph unicode="^" horiz-adv-x="961" d="M155 1077q0 7 3 12l243 400q32 40 78 40q47 0 79 -40l256 -390q2 -5 2 -9q0 -23 -40 -41q-32 -14 -55 -14q-58 0 -101 56l-140 183l-125 -192q-44 -56 -110 -56q-28 0 -56 12q-34 15 -34 39z" />
<glyph unicode="_" d="M-24 -333q0 96 56 96h1063q66 0 66 -93q0 -88 -66 -88h-1063q-56 0 -56 85z" />
<glyph unicode="`" horiz-adv-x="682" d="M163 1414q0 35 49 63q43 24 83 24q35 0 47 -21l94 -177q6 -11 6 -21q0 -37 -46 -67q-40 -26 -79 -26q-41 0 -57 30l-93 176q-4 9 -4 19z" />
<glyph unicode="a" d="M107 548q0 230 110 377q123 162 347 162q44 0 58 -2l320 -4q101 -1 101 -61v-1002q0 -50 -89 -50q-87 0 -93 49v99q-108 -139 -288 -139q-227 0 -355 181q-111 157 -111 390zM306 533q0 -156 62 -264q75 -131 220 -131q141 0 224 133q29 47 31 269l2 381h-280 q-28 0 -35 1q-121 -22 -179 -151q-45 -99 -45 -238z" />
<glyph unicode="b" d="M127 27v1382q0 61 100 61q95 0 95 -61v-321h225q14 2 58 2q224 0 347 -163q111 -147 111 -378q0 -234 -112 -392q-128 -181 -355 -181q-180 0 -287 140v-90q-7 -49 -94 -49q-88 0 -88 50zM324 923l2 -382q2 -222 31 -270q83 -134 224 -134q145 0 220 132q63 108 63 265 q0 141 -47 241q-59 128 -178 149q-9 -1 -35 -1h-280z" />
<glyph unicode="c" horiz-adv-x="1024" d="M73 527q0 367 234 495q118 64 257 64q259 0 374 -183q3 -6 3 -13q0 -38 -42.5 -70.5t-82.5 -32.5q-27 0 -42 23q-59 115 -203 115q-298 0 -298 -393q0 -395 288 -395q186 0 242 176q24 38 66 38q40 0 77 -27.5t37 -66.5q0 -18 -13 -32q-119 -249 -407 -249 q-241 0 -371 159q-119 146 -119 392z" />
<glyph unicode="d" d="M127 549q0 231 110 378q123 163 347 163q44 0 58 -2h226v321q0 61 94 61q101 0 101 -61v-1382q0 -50 -89 -50q-87 0 -93 49v90q-108 -140 -288 -140q-227 0 -355 181q-111 158 -111 392zM326 534q0 -157 62 -265q75 -132 220 -132q141 0 224 134q29 48 31 270l2 382h-280 q-28 0 -35 1q-121 -22 -179 -151q-45 -100 -45 -239z" />
<glyph unicode="e" d="M68 522q0 249 124 401q135 163 379 163q216 0 353 -145q65 -69 91 -154q29 -95 29 -242v-11q-2 -10 -2 -22l-770 -45q10 -144 85 -232q83 -98 225 -98q193 0 258 180q28 49 102 49q101 0 101 -62q0 -6 -3 -15q-43 -155 -171 -237q-119 -76 -288 -76q-247 0 -383 151 q-130 145 -130 395zM279 640l567 33q-11 99 -56 152q-84 100 -217 100q-126 0 -206 -82q-77 -78 -88 -203z" />
<glyph unicode="f" horiz-adv-x="652" d="M32 895q0 92 57 92h81q0 17 -1 57v56q0 391 323 391h181q73 -10 73 -87q0 -81 -74 -91h-145q-169 0 -169 -205q0 -21 3 -60q3 -43 3 -61h200q68 -8 68 -89q0 -74 -68 -74h-199v-787q0 -78 -98 -78q-96 0 -96 78v787h-82q-57 0 -57 71z" />
<glyph unicode="g" d="M77 546q0 231 110 378q123 163 347 163q44 0 58 -2l320 -4q101 -1 101 -61v-1006q0 -16 -10 -27q-8 -84 -24 -135q-90 -283 -477 -283q-311 0 -408 171q-7 12 -7 26q0 36 39 61q36 23 74 23q40 0 63 -26q35 -41 40 -45q64 -48 198 -48q249 0 298 183q12 44 12 176 q-103 -117 -268 -117q-227 0 -355 181q-111 158 -111 392zM276 531q0 -157 62 -265q75 -132 220 -132q141 0 224 134q29 48 31 270l2 383h-280q-28 0 -35 1q-121 -22 -179 -152q-45 -100 -45 -239z" />
<glyph unicode="h" d="M127 27v1382q0 61 100 61q95 0 95 -61v-321h225q14 2 58 2q224 0 347 -163q111 -147 111 -378v-517q-6 -54 -105 -54q-90 0 -90 54v517q0 129 -54 233q-62 122 -175 142q-9 -1 -35 -1h-281l-1 -896q-6 -50 -107 -50q-88 0 -88 50z" />
<glyph unicode="i" horiz-adv-x="455" d="M105 1369q0 49 33.5 83t82.5 34t83.5 -34t34.5 -83q0 -50 -34.5 -84.5t-83.5 -34.5t-82.5 35t-33.5 84zM129 37v972q0 64 95 64q100 0 100 -64v-972q-6 -54 -105 -54q-90 0 -90 54z" />
<glyph unicode="j" horiz-adv-x="455" d="M-238 -333q0 85 55 92h144q170 0 170 226q0 23 -3.5 68.5t-3.5 68.5v885q0 58 97 58t97 -58v-885q0 -20 1 -61.5t1 -62.5q0 -418 -324 -418h-180q-54 7 -54 87zM95 1352q0 49 33.5 83.5t82.5 34.5t83.5 -34.5t34.5 -83.5t-34.5 -83.5t-83.5 -34.5t-82.5 34.5t-33.5 83.5z " />
<glyph unicode="k" horiz-adv-x="1024" d="M129 37v1372q0 54 92 54q103 0 103 -54v-718l43 2l362 363q55 56 119 56q35 0 66 -18q38 -21 38 -53q0 -14 -12 -25l-327 -331q177 -36 270 -197q81 -139 81 -333v-131q-6 -54 -105 -54q-90 0 -90 54v131q0 128 -54 233q-62 122 -175 142q-10 -1 -35 -1l-181 1v-493 q0 -56 -105 -56q-90 0 -90 56z" />
<glyph unicode="l" horiz-adv-x="455" d="M124 57v1213q0 55 47 121q51 70 106 70q42 0 42 -62v-1342q0 -75 -94 -75q-101 0 -101 75z" />
<glyph unicode="m" horiz-adv-x="1665" d="M107 18v1002q0 59 100 61l240 4q14 2 58 2q236 0 360 -182q46 63 111 104q106 66 200 66q200 0 317 -176q99 -149 100 -397l-13 7l11 6v-469q0 -63 -96 -63q-99 0 -99 63v486q0 235 -115 321q-40 30 -105 30q-109 0 -178 -127q-37 -65 -37 -174v-5q2 -6 2 -12v-543 q-6 -53 -105 -53q-89 0 -90 52q-2 8 -2 17v487h1q-1 1 -1 3q1 13 1 26q0 137 -59 238q-64 111 -169 130q-10 -1 -35 -1l-215 1l-1 -905q-6 -49 -93 -49q-88 0 -88 50z" />
<glyph unicode="n" d="M107 18v1002q0 60 100 61l320 4q14 2 58 2q224 0 347 -162q111 -147 111 -377v-526q-6 -53 -105 -53q-90 0 -90 54v525q0 128 -54 232q-62 122 -175 142q-9 -1 -35 -1l-295 1l-1 -905q-6 -49 -93 -49q-88 0 -88 50z" />
<glyph unicode="o" d="M61 531q0 295 166 437q139 118 339 118q245 0 379 -153q126 -143 126 -387q0 -372 -244 -505q-120 -65 -261 -65q-249 0 -381 156q-124 146 -124 399zM261 531q0 -166 66 -269q79 -125 239 -125t239 128q66 105 66 272q0 161 -70 266q-81 121 -235 121q-159 0 -239 -124 q-66 -104 -66 -269z" />
<glyph unicode="p" d="M107 -342v1362q0 60 100 61l320 4q14 2 58 2q224 0 347 -163q111 -147 111 -378q0 -233 -112 -391q-128 -182 -355 -182q-180 0 -287 140v-456q-7 -49 -94 -49q-88 0 -88 50zM304 921l2 -383q2 -222 31 -269q83 -134 224 -134q145 0 220 132q63 108 63 264q0 141 -47 242 q-59 127 -178 149q-9 -1 -35 -1h-280z" />
<glyph unicode="q" d="M107 546q0 231 110 378q123 163 347 163q44 0 58 -2l320 -4q101 -1 101 -61v-1362q0 -50 -89 -50q-87 0 -93 49v456q-108 -140 -288 -140q-227 0 -355 182q-111 158 -111 391zM306 531q0 -156 62 -264q75 -132 220 -132q141 0 224 134q29 47 31 269l2 383h-280 q-28 0 -35 1q-121 -22 -179 -152q-45 -100 -45 -239z" />
<glyph unicode="r" horiz-adv-x="827" d="M122 27v939q0 26 1 32v9q0 58 107 58q95 0 95 -60v-45q113 128 283 128q147 0 188 -35q36 -31 36 -70q0 -41 -33 -74.5t-74 -33.5q-18 0 -30 11q-26 41 -103 41q-142 0 -219 -127q-58 -98 -58 -257q0 -9 1 -27t1 -26v-464q-6 -53 -105 -53q-90 0 -90 54z" />
<glyph unicode="s" horiz-adv-x="1024" d="M74 208q0 37 37.5 66.5t75.5 29.5q36 0 58 -30q59 -137 251 -137q257 0 257 159q0 56 -50 89q-35 22 -182 59q-171 42 -216 59q-219 84 -219 274q0 160 136 242q112 67 282 67q266 0 365 -134l2 -2q10 -13 10 -27q0 -37 -46 -63q-39 -24 -78 -24q-36 0 -56 24 q-55 65 -184 65q-242 0 -242 -128q0 -69 86 -102q22 -9 158 -45q178 -48 210 -60q224 -81 224 -275q0 -204 -209 -295q-101 -44 -247 -44q-312 0 -418 209q-5 12 -5 23z" />
<glyph unicode="t" horiz-adv-x="569" d="M45 950q0 86 51 86h65v282q0 66 95 67h3q96 0 96 -59v-290h163q55 0 55 -82t-55 -82h-163v-824q0 -66 -94 -66q-100 0 -100 66v824h-65q-51 0 -51 78z" />
<glyph unicode="u" d="M107 507v526q5 53 104 53q91 0 91 -54v-525q0 -128 53 -232q62 -122 175 -142q9 1 35 1l295 -1l1 905q6 49 93 49q89 0 89 -50v-1002q0 -60 -101 -61l-320 -4q-14 -2 -58 -2q-224 0 -347 162q-110 147 -110 377z" />
<glyph unicode="v" horiz-adv-x="1024" d="M28 1037q0 28 37 45q30 13 62 13q76 0 107 -64l284 -743l283 749q20 54 111 54q92 0 92 -46q0 -7 -4 -14l-395 -997q-21 -52 -83 -52q-78 0 -99 52l-393 992q-2 6 -2 11z" />
<glyph unicode="w" horiz-adv-x="1666" d="M105 496l3 540q0 74 89 74q106 0 106 -74v-505q0 -187 25 -253q44 -113 190 -113q101 0 161 64.5t60 164.5v641q-1 4 -1 8q0 31 34 52q31 19 70 19q92 0 92 -78v-599q0 -272 232 -272q202 0 202 250v620q-1 5 -1 11q0 30 31 48q29 18 69 18q95 0 95 -76v-680 q0 -172 -114 -269q-107 -91 -282 -91q-105 0 -196 50q-102 55 -133 147q-40 -92 -123 -144.5t-186 -52.5q-423 0 -423 493v7z" />
<glyph unicode="x" horiz-adv-x="1024" d="M40 39q0 9 4 20l350 493l-328 456q-4 6 -4 15q0 32 41 51q33 15 68 15q80 0 132 -72l209 -291l222 303q47 64 137 64q99 0 99 -52q0 -11 -9 -21l-338 -458l352 -495q7 -7 7 -16q0 -31 -42 -51q-35 -16 -69 -16q-80 0 -129 74l-230 349l-237 -356q-45 -68 -144 -68 q-91 0 -91 56z" />
<glyph unicode="y" d="M86 -234q0 35 43 60q37 21 75 21q37 0 60 -25q34 -40 39 -43q63 -48 198 -48q249 0 298 183q5 20 8 55l-205 -3q-14 -2 -58 -2q-224 0 -347 163q-110 147 -110 378v527q5 54 104 54q91 0 91 -54v-527q0 -129 53 -233q62 -122 175 -142q9 1 35 0l267 -1v12q7 78 8 199 l1 697q6 50 93 50q89 0 89 -50v-12q7 -13 7 -30v-849q0 -198 -31 -294q-89 -283 -477 -283q-311 0 -407 171q-9 11 -9 26z" />
<glyph unicode="z" horiz-adv-x="1024" d="M29 36q0 39 62 120l575 747h-569q-66 0 -66 81q0 78 66 78h828q61 0 61 -37q0 -21 -55 -92l-586 -763l586 2q65 0 65 -84q0 -88 -69 -88h-830q-68 0 -68 36z" />
<glyph unicode="{" horiz-adv-x="721" d="M50 510q0 86 75 89q149 7 149 139q0 55 -28 159q-35 132 -35 259q0 198 93 271q83 64 290 64q33 0 57 -33q21 -29 21 -64q0 -68 -78 -74q-14 2 -37 2q-174 1 -174 -182q0 -68 22.5 -203t22.5 -204q0 -183 -144 -222q176 -34 176 -235q0 -60 -18 -179.5t-18 -179.5 q0 -177 170 -177q71 -1 71 -85q0 -86 -71 -86h-56q-283 0 -283 281q0 68 19.5 202t19.5 201q0 183 -169 169q-75 1 -75 88z" />
<glyph unicode="|" horiz-adv-x="450" d="M120 -323v1722q0 75 107 75q104 0 104 -86l-2 -1711q0 -66 -105 -66q-104 0 -104 66z" />
<glyph unicode="}" horiz-adv-x="721" d="M50 1394q0 35 20 64q24 33 57 33q207 0 290 -64q94 -73 94 -271q0 -127 -36 -260q-27 -105 -27 -159q0 -131 148 -138q76 -3 76 -89q0 -87 -76 -88q-168 14 -168 -169q0 -67 19.5 -201t19.5 -202q0 -281 -284 -281h-56q-70 0 -70 86q0 84 70 85q171 0 171 177 q0 60 -18 179.5t-18 179.5q0 201 175 235q-143 39 -143 221q0 69 22.5 204.5t22.5 203.5q0 182 -174 182q-18 0 -38 -2q-77 6 -77 74z" />
<glyph unicode="~" horiz-adv-x="1196" d="M112 670q0 63 27 149q80 165 247 165q97 0 276 -138q94 -73 145 -73q109 0 223 228q40 -114 40 -151q0 -60 -34 -119q-91 -155 -246 -155q-93 0 -253 130q-99 81 -165 81q-100 0 -224 -219q-36 36 -36 102z" />
<glyph unicode="&#xa1;" horiz-adv-x="569" d="M168 -169q61 498 61 921q0 60 -2 118q5 37 64 37q63 0 68 -37q-3 -57 -3 -130q0 -446 59 -915q-5 -83 -121 -83q-47 0 -85 20q-47 25 -41 69zM180 1132q0 47 32 80t79 33q48 0 80.5 -32.5t32.5 -80.5t-33 -80.5t-80 -32.5t-79 33t-32 80z" />
<glyph unicode="&#xa2;" horiz-adv-x="1024" d="M73 527q0 368 234 497q76 42 163 56v179q0 73 89 73q91 0 107 -75v-177q188 -32 272 -176q3 -5 3 -13q0 -36 -44.5 -69.5t-81.5 -33.5q-28 0 -41 23q-43 76 -108 101v-227q-9 -74 -99 -74q-97 0 -97 78v224q-197 -59 -197 -381q0 -328 197 -385v240q0 73 89 73 q91 0 107 -75v-233q99 39 137 160q24 38 66 38q40 0 77 -27.5t37 -66.5q0 -19 -13 -32q-95 -199 -304 -241v-177q-9 -75 -99 -75q-97 0 -97 79v171q-204 30 -307 191q-90 141 -90 355z" />
<glyph unicode="&#xa3;" horiz-adv-x="1089" d="M-1 725q0 103 56 103h48v253q0 187 141 294q128 97 320 97q212 0 338 -108q131 -111 145 -319q6 -77 -101 -77q-98 0 -98 58q0 133 -73.5 208.5t-206.5 75.5q-113 0 -189 -65q-79 -68 -79 -179q0 -7 -2 -11v-227h380q67 0 67 -102q0 -92 -67 -92h-380v-446l695 -2 q60 0 60 -94q0 -92 -60 -92h-889v79q-1 5 -1 11v544h-48q-56 0 -56 91z" />
<glyph unicode="&#xa4;" d="M97 405q0 26 13 47l139 133q-31 76 -31 164q0 97 35 178l-127 128q-19 19 -19 46q0 43 34 73t78 30q25 0 48 -14l111 -114q84 54 195 54q103 0 183 -46l123 118q18 18 49 18q41 0 75 -33.5t34 -73.5q0 -28 -23 -49l-127 -123q42 -85 42 -188q0 -97 -39 -180l139 -140 q17 -21 17 -48q0 -40 -34 -73t-74 -33q-31 0 -51 21l-126 127q-82 -51 -187 -51q-116 0 -202 58l-125 -119q-20 -20 -47 -20q-43 0 -73 33.5t-30 76.5zM381 753q0 -24 2 -47q14 6 29 6q40 0 74 -33.5t34 -73.5q0 -28 -37 -64q39 -20 90 -20q44 0 80 16q-30 31 -30 56 q0 43 34 72.5t78 29.5q13 0 24 -3q7 32 7 66q0 39 -8 74l12 -4q-30 -25 -54 -25q-43 0 -73 33.5t-30 76.5q0 26 14 47l14 14q-31 11 -68 11q-48 0 -86 -18l25 -25q18 -22 18 -48q0 -40 -34 -74t-75 -34q-21 0 -38 11q-2 -21 -2 -44z" />
<glyph unicode="&#xa5;" horiz-adv-x="1366" d="M41 1438q0 33 45 55q37 17 74 17q86 0 134 -80l329 -543h95l343 535q51 80 151 80q97 0 97 -59q0 -14 -10 -29l-341 -527h190q63 0 63 -89q0 -92 -63 -92h-307l-68 -106v-109h375q63 0 63 -89q0 -92 -63 -92h-375v-273q0 -60 -106 -60q-103 0 -103 60v273h-364 q-77 0 -77 87q0 94 77 94h364v109l-67 106h-297q-77 0 -77 87q0 94 77 94h182l-336 535q-5 9 -5 16z" />
<glyph unicode="&#xa6;" horiz-adv-x="1103" d="M430 -320v797q0 73 89 73q91 0 107 -75v-798q-9 -76 -99 -76q-97 0 -97 79zM430 779v780q0 73 90 73t106 -75v-782q-9 -74 -100 -74q-96 0 -96 78z" />
<glyph unicode="&#xa7;" horiz-adv-x="961" d="M103 -114q0 40 26 74q28 38 67 38q31 0 49 -34q48 -162 202 -162q207 0 207 188q0 68 -41 106q-23 22 -106 54q-11 2 -76.5 24.5t-79.5 29.5q-47 17 -128 61q-29 24 -58 84q-52 85 -52 206q0 195 119 291q-79 93 -79 242q0 166 85 261q90 101 255 101q217 0 297 -157 l2 -3q8 -14 8 -30q0 -36 -32.5 -68.5t-69.5 -32.5q-31 0 -47 29q-42 76 -147 76q-195 0 -195 -152q0 -84 70 -121q19 -11 128 -53q147 -58 169 -70q183 -95 183 -322q0 -192 -111 -298q71 -85 71 -236q0 -238 -170 -344q-83 -52 -201 -52q-253 0 -341 246q-4 12 -4 24z M269 580q0 -83 70 -123q14 -8 128 -53q25 -10 124 -49q103 40 103 169q0 64 -37 102q-29 0 -45 28l-2 2q-21 10 -185 73q-156 -16 -156 -149z" />
<glyph unicode="&#xa8;" horiz-adv-x="664" d="M41 1376q0 46 34 78.5t83 32.5t83 -32.5t34 -78.5q0 -48 -34.5 -80t-82.5 -32q-50 0 -83.5 32.5t-33.5 79.5zM391 1376q0 46 34 78.5t83 32.5t83 -32.5t34 -78.5q0 -48 -34.5 -80t-82.5 -32q-50 0 -83.5 32.5t-33.5 79.5z" />
<glyph unicode="&#xa9;" horiz-adv-x="1593" d="M92 714q0 347 175 555q189 223 534 223q203 0 365 -93q167 -96 255 -272t88 -396q0 -212 -84 -383q-91 -187 -265 -282q-167 -91 -360 -91q-205 0 -368 96q-168 98 -256 278q-84 172 -84 365zM307 711q0 -245 121 -395q131 -162 371 -162q247 0 377 172q118 154 118 406 q0 363 -234 509q-114 71 -258 71q-256 0 -384 -179q-111 -156 -111 -422zM413 739q0 270 195 376q93 50 205 50q218 0 305 -165q6 -11 6 -23q0 -31 -27.5 -53t-58.5 -22q-34 0 -51 30q-55 104 -176 104q-173 0 -224 -149q-24 -72 -24 -147q0 -208 113 -275q58 -35 127 -35 q145 0 198 127q15 51 61 51q31 0 56.5 -23t25.5 -54q0 -17 -14 -45q-31 -61 -89 -109q-93 -76 -229 -76q-262 0 -355 216q-44 104 -44 222z" />
<glyph unicode="&#xaa;" horiz-adv-x="897" d="M50 1102q0 174 98.5 276t271.5 102h30q6 -1 16 -1l259 -3q83 -1 83 -45v-698q0 -38 -74 -38q-70 0 -76 37v65q-87 -95 -231 -95q-174 0 -277 114q-100 110 -100 286zM213 1092q0 -114 53 -188q61 -85 173 -85q114 0 180 92q23 32 25 186l1 263h-252q-93 -14 -141 -98 q-39 -70 -39 -170z" />
<glyph unicode="&#xab;" horiz-adv-x="1061" d="M46 736q0 59 62 87l329 353q14 14 34 14q39 0 68 -39q26 -36 26 -76q0 -55 -57 -86l-186 -256l186 -259q56 -23 56 -85q0 -40 -23 -76q-26 -40 -66 -40q-19 0 -37 14l-331 358q-61 37 -61 91zM489 727q0 59 61 87l329 353q14 14 34 14q38 0 68 -39q27 -36 27 -76 q0 -55 -58 -86l-186 -256l186 -259q56 -23 56 -84q0 -41 -23 -76q-26 -41 -65 -41q-20 0 -38 14l-331 359q-60 36 -60 90z" />
<glyph unicode="&#xac;" horiz-adv-x="1008" d="M60 721q0 100 55 100h773q44 0 60 -55q7 -16 7 -41q0 -11 -2 -23v-229q0 -54 -93 -54q-103 0 -103 54v159h-642q-55 0 -55 89z" />
<glyph unicode="&#xad;" horiz-adv-x="851" d="M60 725q0 96 55 96h623q67 0 67 -93q0 -88 -67 -88h-623q-55 0 -55 85z" />
<glyph unicode="&#xae;" horiz-adv-x="1593" d="M92 714q0 347 175 555q189 223 534 223q203 0 365 -93q167 -96 255 -272t88 -396q0 -212 -84 -383q-91 -187 -265 -282q-167 -91 -360 -91q-205 0 -368 96q-168 98 -256 278q-84 172 -84 365zM307 711q0 -245 121 -395q131 -162 371 -162q247 0 377 172q118 154 118 406 q0 363 -234 509q-114 71 -258 71q-256 0 -384 -179q-111 -156 -111 -422zM507 338v807h290q114 0 173 -19q159 -51 159 -232q0 -134 -89 -201q76 -59 76 -156v-200q0 -45 -72 -45q-68 0 -72 45v195q0 18 -19 50q-30 50 -110 50h-7h-6h-177v-294q0 -42 -75 -42q-71 0 -71 42z M653 766h155q171 0 171 125q0 121 -173 121h-153v-246z" />
<glyph unicode="&#xaf;" horiz-adv-x="682" d="M4 1294q0 96 55 96h553q66 0 66 -93q0 -88 -66 -88h-553q-55 0 -55 85z" />
<glyph unicode="&#xb0;" horiz-adv-x="819" d="M109 1214q0 129 83.5 209.5t212.5 80.5q130 0 214.5 -80t84.5 -210t-84.5 -210t-214.5 -80t-213 80t-83 210zM258 1214q0 -61 43 -103t105 -42q63 0 106 41.5t43 103.5t-43 104t-106 42q-62 0 -105 -42.5t-43 -103.5z" />
<glyph unicode="&#xb1;" horiz-adv-x="1196" d="M87 714q0 98 57 98h362v357q0 57 93 57q92 0 92 -57v-357h361q50 0 50 -93q0 -88 -50 -88h-361v-360q0 -54 -91 -54q-94 0 -94 54v360h-362q-57 0 -57 83zM90 91q0 103 55 103h883q67 0 67 -100q0 -94 -67 -94h-883q-55 0 -55 91z" />
<glyph unicode="&#xb2;" horiz-adv-x="632" d="M49 727l358 441q2 4 4 6q38 52 38 95q0 49 -35 78t-86 29q-126 0 -127 -127q0 -43 -62 -43q-69 0 -64 54q17 223 255 223q105 0 173 -56q74 -59 74 -160q0 -47 -26 -104q-27 -60 -63 -86l-186 -230h243q39 0 39 -61q0 -59 -39 -59h-496z" />
<glyph unicode="&#xb3;" horiz-adv-x="599" d="M47 895q0 26 27 44q24 16 51 16q38 0 47 -29q31 -100 120 -100q58 0 96 38t38 95q0 82 -57 108q-1 0 -104 21q-56 12 -56 59q0 35 52 35q132 -1 132 103q0 95 -103 95q-84 0 -110 -86q-19 -26 -45 -26t-46 22t-20 48q0 12 4 21q64 128 215 128q94 0 161 -54 q72 -58 72 -150q0 -103 -60 -140q42 -22 70 -79q26 -53 26 -103q0 -110 -79 -178q-75 -65 -186 -65q-101 0 -172 60q-51 43 -71 103q-2 7 -2 14z" />
<glyph unicode="&#xb4;" horiz-adv-x="682" d="M263 1280q0 10 5 21l94 177q12 21 46 21q39 0 83 -24q51 -28 51 -63q0 -10 -5 -19l-94 -176q-16 -30 -56 -30q-41 0 -81 27q-43 29 -43 66z" />
<glyph unicode="&#xb5;" d="M126 545l2 -1v458q0 64 95 64q100 0 100 -64v-371q1 -6 1 -12v-482l278 1q28 0 35 -1q113 20 175 142q54 104 54 233v527q0 54 90 54q99 0 105 -54v-527q0 -228 -110 -375q-64 -87 -156 -127q34 -32 139 -32q30 0 93 4q28 6 49.5 -17.5t21.5 -51.5q0 -73 -203 -73 q-230 0 -285 131h-7q-41 0 -57 2h-222l-1 -326q-5 -54 -104 -54q-90 0 -90 54v806q0 15 -1.5 46t-1.5 46z" />
<glyph unicode="&#xb6;" horiz-adv-x="1228" d="M63 1040q0 426 530 426h483q41 5 67 -27q23 -28 23 -71q0 -88 -90 -88h-56v-1530q0 -66 -104 -66q-91 0 -91 66v1530h-108v-1520q0 -76 -99 -76q-101 0 -101 76v870q-454 28 -454 410z" />
<glyph unicode="&#xb7;" horiz-adv-x="436" d="M102 712q0 47 33.5 79t83.5 32q49 0 83 -32.5t34 -78.5q0 -48 -34.5 -80t-82.5 -32q-51 0 -84 32t-33 80z" />
<glyph unicode="&#xb8;" horiz-adv-x="682" d="M79 -349q0 28 21 50.5t49 17.5q63 -4 93 -4q154 0 154 65q0 55 -138 58l3 179q0 39 78 39q72 0 70 -39l-2 -98q171 -21 171 -149q0 -100 -106 -151q-80 -40 -191 -40q-202 0 -202 72z" />
<glyph unicode="&#xb9;" horiz-adv-x="460" d="M93 1299q0 15 11 25l144 126q39 34 69 34q32 0 51 -39v-691q0 -38 -64 -38q-61 0 -61 38v528l-57 -50q-10 -9 -23 -9q-28 0 -49 24.5t-21 51.5z" />
<glyph unicode="&#xba;" horiz-adv-x="748" d="M26 1111q0 172 86 278q93 115 261 115t262 -113q87 -104 87 -276q0 -168 -89 -274q-94 -113 -259 -113q-167 0 -260 110q-88 104 -88 273zM214 1115q0 -218 159 -218q161 0 161 223q0 214 -161 214q-159 0 -159 -219z" />
<glyph unicode="&#xbb;" horiz-adv-x="1061" d="M46 1066q0 40 26 76q30 39 68 39q20 0 34 -14l329 -353q62 -28 62 -87q0 -54 -61 -90l-331 -359q-18 -14 -38 -14q-39 0 -65 41q-22 35 -22 76q0 61 55 84l186 259l-186 256q-57 31 -57 86zM489 1075q0 40 25 76q29 39 68 39q20 0 34 -14l329 -353q63 -28 63 -87 q0 -54 -62 -91l-331 -358q-19 -14 -37 -14q-40 0 -66 40q-22 36 -22 76q0 62 55 85l186 259l-186 256q-56 31 -56 86z" />
<glyph unicode="&#xbc;" horiz-adv-x="1431" d="M112 1297q0 17 10 26l145 126q40 35 68 35q32 0 51 -39v-698q0 -38 -63 -38q-62 0 -62 38v533l-56 -50q-10 -9 -23 -9q-28 0 -49 24.5t-21 51.5zM151 402q0 34 28 57l919 717q18 14 41 14q41 0 70 -35t29 -76q0 -33 -21 -57l-921 -719q-19 -12 -40 -12q-44 0 -74.5 34 t-30.5 77zM741 212q0 28 23 65l219 444q24 35 77 30q44 -3 44 -31q0 -4 -4 -12l-211 -424h178v167q0 40 56 40q59 0 59 -40v-167h101q37 0 37 -58q0 -49 -37 -49h-101v-141q0 -44 -59 -44q-56 0 -56 44v141h-291q-35 0 -35 35z" />
<glyph unicode="&#xbd;" horiz-adv-x="1450" d="M85 1297q0 17 10 26l145 126q40 35 69 35q32 0 51 -39v-698q0 -38 -64 -38q-61 0 -61 38v534l-57 -51q-10 -9 -23 -9q-28 0 -49 24.5t-21 51.5zM124 402q0 34 28 57l919 717q18 14 41 14q44 0 72 -34t28 -77q0 -33 -22 -57l-920 -719q-20 -12 -41 -12q-44 0 -74.5 34 t-30.5 77zM830 -12l358 445q2 5 6 7q36 52 36 95q0 108 -121 108q-125 0 -125 -128q0 -43 -63 -43q-70 0 -65 54q17 225 255 225q105 0 173 -56q74 -60 74 -162q0 -47 -26 -104q-26 -61 -62 -87l-186 -233h242q40 0 40 -61q0 -60 -40 -60h-496z" />
<glyph unicode="&#xbe;" horiz-adv-x="1440" d="M63 889q0 28 27 46q23 15 52 15q38 0 47 -30q32 -100 119 -100q58 0 96 38t38 96q0 83 -57 109q-1 0 -104 21q-56 12 -56 60q0 35 52 35q132 -1 132 105q0 95 -103 95q-83 0 -110 -87q-19 -26 -45 -26t-45.5 22.5t-19.5 48.5q0 11 4 21q64 129 214 129q96 0 162 -54 q71 -58 71 -151q0 -105 -60 -142q42 -22 70 -80q26 -53 26 -104q0 -110 -79 -179q-75 -66 -186 -66q-109 0 -182 70q-63 61 -63 108zM209 402q0 35 27 57l919 717q18 14 42 14q41 0 70 -35t29 -76q0 -33 -22 -57l-920 -719q-19 -12 -41 -12q-44 0 -74 34t-30 77zM799 212 q0 28 23 65l219 444q23 35 76 30q44 -3 44 -31q0 -6 -3 -12l-211 -424h177v167q0 40 57 40q59 0 59 -40l-1 -167h101q38 0 38 -58q0 -49 -38 -49h-101v-141q0 -44 -58 -44q-57 0 -57 44v141h-291q-34 0 -34 35z" />
<glyph unicode="&#xbf;" d="M83 141q0 113 67 213q47 69 156 163q66 58 92 88q71 81 77 231q1 55 95 55q93 0 93 -55v-25q0 -180 -103 -302q-28 -32 -134 -127q-72 -64 -100 -101q-43 -60 -43 -128q0 -112 81 -183t194 -71q237 0 286 288q8 48 86 48q40 0 74 -16q44 -20 39 -56q-55 -425 -482 -425 q-202 0 -333 98q-145 110 -145 305zM451 1128q0 48 31.5 80.5t79.5 32.5t80.5 -32.5t32.5 -80.5t-33 -80.5t-80 -32.5t-79 33t-32 80z" />
<glyph unicode="&#xc0;" horiz-adv-x="1366" d="M-4 24q0 4 1 8l537 1374q24 61 130 61q105 0 131 -61l574 -1380q11 -27 -48 -42q-37 -9 -70 -9q-92 0 -117 45l-201 538h-525l-190 -530q-16 -46 -124 -46q-98 0 -98 42zM476 732h396l-206 483zM521 1773q0 36 49 65q45 26 83 26q34 0 46 -23l93 -182q9 -12 9 -25 q0 -40 -47 -68q-37 -28 -78 -28t-58 32l-93 183q-4 14 -4 20z" />
<glyph unicode="&#xc1;" horiz-adv-x="1366" d="M-4 24q0 4 1 8l537 1374q24 61 130 61q105 0 131 -61l574 -1380q11 -27 -48 -42q-37 -9 -70 -9q-92 0 -117 45l-201 538h-525l-190 -530q-16 -46 -124 -46q-98 0 -98 42zM476 732h396l-206 483zM583 1632q0 10 4 24l94 183q12 23 46 23q38 0 82 -26q52 -31 53 -65 q-2 -7 -5 -19l-94 -184q-17 -32 -56 -32q-41 0 -81 27q-43 31 -43 69z" />
<glyph unicode="&#xc2;" horiz-adv-x="1366" d="M-4 24q0 4 1 8l537 1374q24 61 130 61q105 0 131 -61l574 -1380q11 -27 -48 -42q-37 -9 -70 -9q-92 0 -117 45l-201 538h-525l-190 -530q-16 -46 -124 -46q-98 0 -98 42zM329 1568q0 7 4 11l258 270q33 27 81 27t81 -27l273 -268v-5q0 -21 -45 -32q-32 -8 -55 -8 q-63 0 -106 36l-148 126l-135 -129q-40 -39 -113 -39q-95 0 -95 38zM476 732h396l-206 483z" />
<glyph unicode="&#xc3;" horiz-adv-x="1366" d="M-4 24q0 4 1 8l537 1374q24 61 130 61q105 0 131 -61l574 -1380q11 -27 -48 -42q-37 -9 -70 -9q-92 0 -117 45l-201 538h-525l-190 -530q-16 -46 -124 -46q-98 0 -98 42zM364 1587q0 53 26 120q65 120 176 112q39 -3 136 -85.5t111 -87.5q62 -5 156 173q18 -67 21 -115 q6 -64 -30 -119q-71 -110 -173 -102q-35 2 -137 89q-98 83 -107 83q-53 3 -151 -153q-28 36 -28 85zM476 732h396l-206 482z" />
<glyph unicode="&#xc4;" horiz-adv-x="1366" d="M-4 24q0 4 1 8l537 1373q24 62 130 62q105 0 131 -62l574 -1379q11 -27 -48 -42q-37 -9 -70 -9q-92 0 -117 45l-201 538h-525l-190 -530q-16 -46 -124 -46q-98 0 -98 42zM378 1656q0 48 35 83t83 35q49 0 82.5 -34t33.5 -84t-33 -84.5t-83 -34.5t-84 34.5t-34 84.5z M476 732h396l-206 482zM728 1656q0 48 35 83t83 35q49 0 82.5 -34t33.5 -84t-33 -84.5t-83 -34.5t-84 34.5t-34 84.5z" />
<glyph unicode="&#xc5;" horiz-adv-x="1366" d="M-4 24q0 4 1 8l537 1374q4 7 12 19q-82 53 -82 168q0 84 56.5 140.5t141.5 56.5t141.5 -58t56.5 -143q0 -105 -80 -159q9 -11 15 -24l574 -1380q11 -27 -48 -42q-37 -9 -70 -9q-92 0 -117 45l-201 538h-525l-190 -530q-16 -46 -124 -46q-98 0 -98 42zM476 732h396 l-206 482zM575 1593q0 -38 25.5 -66t63.5 -28q37 0 63 27.5t26 64.5q0 38 -25.5 64.5t-63.5 26.5q-37 0 -63 -26t-26 -63z" />
<glyph unicode="&#xc6;" horiz-adv-x="1991" d="M58 28l659 1370q33 52 130 57v6h1017q70 0 70 -95q0 -91 -70 -91h-782l262 -509h305q82 0 82 -97q0 -88 -82 -88h-211l205 -400h225q90 0 90 -88q0 -39 -25 -68.5t-65 -29.5h-1021v573h-301l-239 -538q-17 -39 -141 -39q-118 0 -108 37zM627 754l220 -4v442zM1056 181 h328l-179 387h-149v-387zM1056 766h61l-61 116v-116z" />
<glyph unicode="&#xc7;" horiz-adv-x="1479" d="M95 741q0 477 339 662q163 88 361 88q369 0 527 -287q7 -12 7 -31q0 -45 -37.5 -76.5t-83.5 -31.5q-49 0 -72 43q-108 203 -345 203q-158 0 -271 -72q-211 -135 -211 -496q0 -391 221 -523q115 -68 244 -68q286 0 388 248q20 75 85 75q45 0 81 -35t36 -79q0 -22 -7 -36 q-155 -343 -546 -353v-45q170 -24 170 -152q0 -102 -104 -155q-82 -42 -193 -42q-202 0 -202 75q0 25 16.5 47t41.5 22q6 0 12 -1q65 -4 93 -4q155 0 155 68q0 57 -138 59l2 138q-354 45 -491 367q-78 183 -78 392z" />
<glyph unicode="&#xc8;" horiz-adv-x="1241" d="M81 0v1469h1017q69 0 69 -97q0 -90 -69 -90h-807v-430h592q81 0 81 -97q0 -88 -81 -88h-592v-481h811q90 0 90 -87q0 -99 -90 -99h-1021zM499 1773q0 36 49 65q45 26 83 26q36 0 48 -23l94 -183q5 -14 5 -24q0 -39 -47 -68q-37 -28 -78 -28t-58 32l-92 183q-4 14 -4 20z " />
<glyph unicode="&#xc9;" horiz-adv-x="1241" d="M81 0v1469h1017q69 0 69 -97q0 -90 -69 -90h-807v-430h592q81 0 81 -97q0 -88 -81 -88h-592v-481h811q90 0 90 -87q0 -99 -90 -99h-1021zM554 1632q0 10 4 24l94 183q12 23 46 23q38 0 82 -26q52 -31 53 -65q-2 -7 -5 -19l-94 -184q-17 -32 -56 -32q-41 0 -81 27 q-43 31 -43 69z" />
<glyph unicode="&#xca;" horiz-adv-x="1241" d="M81 0v1469h1017q69 0 69 -96q0 -91 -69 -91h-807v-430h592q81 0 81 -97q0 -88 -81 -88h-592v-481h811q90 0 90 -87q0 -99 -90 -99h-1021zM302 1568q0 7 4 11l258 270q33 27 81 27q45 0 83 -27l271 -270q0 -24 -45 -35q-33 -8 -55 -8q-59 0 -103 36l-151 126l-132 -129 q-39 -39 -116 -39q-95 0 -95 38z" />
<glyph unicode="&#xcb;" horiz-adv-x="1241" d="M81 0v1469h1017q69 0 69 -97q0 -91 -69 -91h-807v-429h592q81 0 81 -97q0 -89 -81 -89h-592v-481h811q90 0 90 -86q0 -99 -90 -99h-1021zM343 1656q0 48 35 83t83 35q49 0 82.5 -34t33.5 -84t-33 -84.5t-83 -34.5t-84 34.5t-34 84.5zM693 1656q0 48 35 83t83 35 t82.5 -34.5t34.5 -83.5q0 -48 -34.5 -83.5t-82.5 -35.5q-50 0 -84 34.5t-34 84.5z" />
<glyph unicode="&#xcc;" horiz-adv-x="416" d="M87 1773q0 36 49 65q45 26 83 26q36 0 48 -23l94 -183q5 -14 5 -24q0 -39 -44 -69q-39 -27 -80 -27q-39 0 -56 32l-95 183q-4 14 -4 20zM118 48v1355q0 38 39 61q33 18 74 18q96 0 96 -79v-1355q0 -66 -106 -66q-103 0 -103 66z" />
<glyph unicode="&#xcd;" horiz-adv-x="440" d="M112 1632q0 11 6 24l92 183q12 23 46 23q38 0 83 -25q52 -28 52 -66q-2 -7 -5 -19l-94 -184q-17 -32 -56 -32q-42 0 -79 28q-45 29 -45 68zM118 48v1355q0 38 39 61q33 18 74 18q96 0 96 -79v-1355q0 -66 -106 -66q-103 0 -103 66z" />
<glyph unicode="&#xce;" horiz-adv-x="416" d="M-106 1568q0 7 5 11l256 270q32 27 81 27q45 0 82 -27l268 -264q6 -3 6 -9q0 -20 -47 -32q-30 -8 -53 -8q-62 0 -106 36l-150 126l-133 -129q-40 -39 -113 -39q-96 0 -96 38zM118 48v1355q0 39 39 61q33 18 74 18q96 0 96 -79v-1355q0 -66 -106 -66q-103 0 -103 66z" />
<glyph unicode="&#xcf;" horiz-adv-x="412" d="M-65 1656q0 49 34.5 83.5t83.5 34.5q48 0 82.5 -34.5t34.5 -83.5q0 -48 -34.5 -83.5t-82.5 -35.5q-50 0 -84 34.5t-34 84.5zM118 48v1355q0 38 39 60q33 18 74 18q96 0 96 -78v-1355q0 -66 -106 -66q-103 0 -103 66zM286 1656q0 49 34 83.5t83 34.5t83 -34.5t34 -83.5 t-34 -84t-83 -35q-50 0 -83.5 34.5t-33.5 84.5z" />
<glyph unicode="&#xd0;" horiz-adv-x="1441" d="M-1 725q0 103 56 103h96v638h492q172 0 263 -21q237 -55 354 -267q98 -179 98 -437q0 -263 -98 -443q-162 -298 -593 -298h-516v634h-96q-56 0 -56 91zM360 186h285q253 0 354 100q144 142 144 458q0 410 -255 507q-76 29 -248 29h-280v-452h318q67 0 67 -100 q0 -94 -67 -94h-318v-448z" />
<glyph unicode="&#xd1;" horiz-adv-x="1479" d="M149 66v1345q0 69 64 69q95 0 196 -136l708 -952v1019q0 77 97 77q105 0 105 -77v-1355q0 -60 -59 -60q-100 0 -236 181l-674 901v-1012q0 -37 -41 -59q-33 -17 -73 -17q-87 0 -87 76zM405 1587q0 53 26 120q65 120 176 112q39 -3 136 -85.5t111 -87.5q62 -5 156 173 q18 -67 21 -115q6 -64 -30 -119q-71 -110 -173 -102q-35 3 -137 89q-98 83 -107 83q-53 3 -151 -153q-28 36 -28 85z" />
<glyph unicode="&#xd2;" horiz-adv-x="1593" d="M91 717q0 347 176 555q190 224 534 224q200 0 364 -94q170 -97 256 -271q88 -178 88 -399q0 -461 -340 -661q-164 -96 -368 -96q-205 0 -369 96q-167 98 -257 278q-84 171 -84 368zM307 713q0 -246 120 -396q132 -162 372 -162q248 0 377 170q117 153 117 407 q0 366 -232 510q-116 72 -258 72q-259 0 -387 -180q-109 -155 -109 -421zM614 1773q0 35 49 65q44 26 82 26q36 0 48 -23l95 -183q5 -14 5 -24q0 -39 -46 -69q-40 -27 -79 -27t-56 32l-94 183q-4 14 -4 20z" />
<glyph unicode="&#xd3;" horiz-adv-x="1593" d="M91 717q0 347 176 555q190 224 534 224q200 0 364 -94q170 -97 256 -271q88 -178 88 -399q0 -461 -340 -661q-164 -96 -368 -96q-205 0 -369 96q-167 98 -257 278q-84 171 -84 368zM307 713q0 -246 120 -396q132 -162 372 -162q248 0 377 170q117 153 117 407 q0 366 -232 510q-116 72 -258 72q-259 0 -387 -180q-109 -155 -109 -421zM718 1632q0 10 4 24l94 183q12 23 46 23q38 0 82 -26q52 -31 53 -65q-2 -7 -5 -19l-94 -184q-17 -32 -56 -32q-42 0 -79 28q-45 29 -45 68z" />
<glyph unicode="&#xd4;" horiz-adv-x="1593" d="M91 717q0 347 176 555q190 224 534 224q200 0 364 -94q170 -97 256 -271q88 -178 88 -398q0 -462 -340 -662q-164 -96 -368 -96q-205 0 -369 96q-167 98 -257 278q-84 171 -84 368zM307 713q0 -246 120 -396q132 -162 372 -162q248 0 377 170q117 153 117 408 q0 365 -232 509q-116 72 -258 72q-259 0 -387 -180q-109 -155 -109 -421zM464 1568q0 7 4 11l258 270q33 27 81 27q45 0 83 -27l271 -270q0 -24 -44 -35q-31 -8 -54 -8q-61 0 -105 36l-151 126l-132 -129q-39 -39 -116 -39q-95 0 -95 38z" />
<glyph unicode="&#xd5;" horiz-adv-x="1593" d="M91 716q0 350 177 558q189 222 533 222q200 0 364 -94q170 -98 256 -272q88 -177 88 -398q0 -461 -340 -661q-164 -96 -368 -96q-205 0 -369 96q-167 98 -257 278q-84 171 -84 367zM307 712q0 -245 120 -395q132 -162 372 -162q248 0 377 170q117 152 117 407 q0 365 -232 510q-116 72 -258 72q-259 0 -387 -180q-109 -155 -109 -422zM480 1587q0 62 27 120q59 121 176 112q39 -3 136 -85.5t111 -87.5q61 -5 155 172q19 -66 24 -114q7 -60 -32 -119q-72 -110 -173 -102q-36 2 -137 89q-97 83 -108 83q-52 3 -148 -153q-31 38 -31 85z " />
<glyph unicode="&#xd6;" horiz-adv-x="1593" d="M91 716q0 349 177 558q189 221 533 221q200 0 364 -94q170 -97 256 -271q88 -177 88 -398q0 -461 -340 -661q-164 -96 -368 -96q-205 0 -369 96q-167 98 -257 278q-84 171 -84 367zM307 712q0 -245 120 -395q132 -162 372 -162q248 0 377 170q117 152 117 407 q0 365 -232 510q-116 72 -258 72q-259 0 -387 -180q-109 -156 -109 -422zM515 1656q0 48 35 83t83 35q49 0 82.5 -34t33.5 -84t-33 -84.5t-83 -34.5t-84 34.5t-34 84.5zM865 1656q0 48 35 83t83 35t82.5 -34.5t34.5 -83.5q0 -48 -34.5 -83.5t-82.5 -35.5q-50 0 -84 34.5 t-34 84.5z" />
<glyph unicode="&#xd7;" horiz-adv-x="1003" d="M103 1007q0 38 35 73.5t75 35.5q20 0 32 -12l256 -251l256 251q10 10 25 10q38 0 77 -36.5t39 -73.5q0 -16 -12 -27l-255 -251l257 -253q13 -12 13 -29q0 -39 -38 -74.5t-77 -35.5q-17 0 -28 11l-258 253l-256 -251q-14 -14 -34 -14q-39 0 -72.5 36.5t-33.5 75.5 q0 18 11 29l255 251l-255 251q-12 12 -12 31z" />
<glyph unicode="&#xd8;" horiz-adv-x="1593" d="M92 714q0 347 175 555q189 224 534 224q93 0 177 -20q28 76 34 85q24 36 79 36q83 0 83 -46q0 -6 -2 -10l-43 -119q192 -95 290 -288q90 -174 90 -400q0 -213 -84 -383q-91 -188 -265 -283q-167 -91 -360 -91q-94 0 -180 21l-30 -82q-20 -41 -92 -41q-78 0 -78 37 q0 6 1 10l48 131q-182 93 -283 277q-94 175 -94 387zM307 711q0 -238 125 -392q44 -53 100 -91l384 1072q-54 12 -114 12q-256 0 -384 -179q-111 -156 -111 -422zM681 165q55 -11 118 -11q247 0 377 171q118 155 118 407q0 351 -229 506z" />
<glyph unicode="&#xd9;" horiz-adv-x="1479" d="M155 620v773q-9 83 97 83q40 0 72 -21q38 -24 38 -62v-770q0 -152 22 -234q63 -225 341 -225q232 0 316 115q72 99 72 344v770q0 38 38 60q32 18 72 18q100 0 100 -78v-773q0 -200 -40 -316q-111 -329 -542 -329q-416 0 -531 279q-55 136 -55 366zM552 1773q0 36 49 65 q45 26 83 26q36 0 48 -23l92 -183q7 -13 7 -24q0 -40 -47 -68q-37 -28 -77 -28q-42 0 -59 32l-92 183q-4 14 -4 20z" />
<glyph unicode="&#xda;" horiz-adv-x="1479" d="M155 620v773q-9 83 97 83q40 0 72 -21q38 -24 38 -62v-770q0 -152 22 -234q63 -225 341 -225q232 0 316 115q72 99 72 344v770q0 38 38 60q32 18 72 18q100 0 100 -78v-773q0 -200 -40 -316q-111 -329 -542 -329q-416 0 -531 279q-55 136 -55 366zM655 1632q0 10 4 24 l94 183q12 23 46 23q38 0 82 -26q52 -31 53 -65q-2 -7 -5 -19l-95 -184q-17 -32 -56 -32q-41 0 -80 27q-43 30 -43 69z" />
<glyph unicode="&#xdb;" horiz-adv-x="1479" d="M155 620v773q-9 83 97 83q40 0 72 -21q38 -23 38 -62v-770q0 -152 22 -234q63 -225 341 -225q232 0 316 115q72 99 72 344v770q0 38 38 60q32 18 72 18q100 0 100 -78v-773q0 -200 -40 -316q-111 -329 -542 -329q-416 0 -531 279q-55 136 -55 366zM401 1568q0 7 4 11 l258 270q32 27 80 27t81 -27l274 -268v-5q0 -40 -101 -40q-62 0 -105 36l-149 126l-134 -129q-40 -39 -113 -39q-95 0 -95 38z" />
<glyph unicode="&#xdc;" horiz-adv-x="1479" d="M155 620v773q-9 82 97 82q40 0 72 -20q38 -24 38 -62v-770q0 -152 22 -234q63 -226 341 -226q232 0 316 116q72 99 72 344v770q0 37 38 59q32 19 72 19q100 0 100 -78v-773q0 -200 -40 -317q-111 -328 -542 -328q-416 0 -531 279q-55 135 -55 366zM433 1656q0 48 35 83 t83 35q49 0 82.5 -34t33.5 -84t-33 -84.5t-83 -34.5t-84 34.5t-34 84.5zM784 1656q0 49 34 83.5t83 34.5q48 0 82.5 -34.5t34.5 -83.5q0 -48 -34.5 -83.5t-82.5 -35.5q-50 0 -83.5 34.5t-33.5 84.5z" />
<glyph unicode="&#xdd;" horiz-adv-x="1366" d="M42 1442q0 33 41 53q33 15 71 15q95 0 141 -76l375 -620l391 611q51 81 149 81t98 -60q0 -15 -10 -29l-524 -817v-562q0 -61 -108 -61q-102 0 -102 61v562l-520 826q-2 6 -2 16zM597 1632q0 10 4 24l94 183q12 23 46 23q38 0 82 -26q52 -31 53 -65q-2 -7 -5 -19l-94 -184 q-17 -32 -56 -32q-41 0 -81 27q-43 31 -43 69z" />
<glyph unicode="&#xde;" horiz-adv-x="1241" d="M151 47v1352q0 77 109 77q91 0 100 -76v-248q288 21 316 21q79 0 170 -16q196 -34 284 -213q45 -91 45 -201q0 -450 -468 -450q-41 0 -347 21v-267q0 -89 -85 -89q-41 0 -80 23q-44 27 -44 66zM360 500l282 -19q28 -2 43 -2q275 0 275 258q0 195 -143 234q-75 21 -179 14 l-278 -19v-466z" />
<glyph unicode="&#xdf;" horiz-adv-x="1593" d="M92 714q0 347 175 555q189 223 534 223q203 0 365 -93q167 -96 255 -272t88 -396q0 -212 -84 -383q-91 -187 -265 -282q-167 -91 -360 -91q-205 0 -368 96q-168 98 -256 278q-84 172 -84 365zM307 711q0 -245 121 -395q131 -162 371 -162q247 0 377 172q118 154 118 406 q0 363 -234 509q-114 71 -258 71q-256 0 -384 -179q-111 -156 -111 -422zM535 373v790h285q111 0 172 -20q159 -52 159 -231q0 -263 -322 -263h-148v-278q-7 -54 -64 -54q-26 0 -52 14q-30 17 -30 42zM681 784h150q170 0 170 125q0 121 -173 121h-147v-246z" />
<glyph unicode="&#xe0;" d="M107 550q0 231 110 378q123 163 347 163q44 0 58 -2l320 -4q101 -1 101 -61v-1006q0 -50 -89 -50q-87 0 -93 49v100q-108 -140 -288 -140q-227 0 -355 181q-111 158 -111 392zM306 535q0 -157 62 -265q75 -132 220 -132q141 0 224 134q29 48 31 270l2 383h-280 q-28 0 -35 1q-121 -22 -179 -152q-45 -100 -45 -239zM413 1410q0 37 49 66q43 25 83 25q36 0 48 -22l94 -184q5 -13 5 -20q0 -41 -44 -70q-38 -27 -81 -27q-42 0 -58 31l-92 183q-4 12 -4 18z" />
<glyph unicode="&#xe1;" d="M107 550q0 231 110 378q123 163 347 163q44 0 58 -2l320 -4q101 -1 101 -61v-1006q0 -50 -89 -50q-87 0 -93 49v100q-108 -140 -288 -140q-227 0 -355 181q-111 158 -111 392zM306 535q0 -157 62 -265q75 -132 220 -132q141 0 224 134q29 48 31 270l2 383h-280 q-28 0 -35 1q-121 -22 -179 -152q-45 -100 -45 -239zM505 1273q0 7 4 20l94 184q12 22 46 22q40 0 84 -26q51 -29 51 -65q-2 -7 -5 -18l-94 -184q-16 -30 -56 -30q-43 0 -81 27q-43 29 -43 70z" />
<glyph unicode="&#xe2;" d="M107 550q0 231 110 378q123 163 347 163q44 0 58 -2l320 -4q101 -1 101 -61v-1006q0 -50 -89 -50q-87 0 -93 49v100q-108 -140 -288 -140q-227 0 -355 181q-111 158 -111 392zM231 1205q0 7 3 12l259 270q32 26 80 26t81 -26l274 -266v-7q0 -40 -101 -40q-59 0 -105 39 l-149 125l-134 -131q-39 -39 -113 -39q-95 0 -95 37zM306 535q0 -157 62 -265q75 -132 220 -132q141 0 224 134q29 48 31 270l2 383h-280q-28 0 -35 1q-121 -22 -179 -152q-45 -100 -45 -239z" />
<glyph unicode="&#xe3;" d="M107 550q0 231 110 378q123 163 347 163q44 0 58 -2l320 -4q101 -1 101 -61v-1006q0 -50 -89 -50q-87 0 -93 49v100q-108 -140 -288 -140q-227 0 -355 181q-111 158 -111 392zM243 1250q0 53 26 119q65 120 176 112q41 -3 137 -85t110 -87q62 -6 157 173q17 -71 20 -116 q6 -65 -29 -118q-71 -110 -173 -103q-34 3 -136 89q-98 83 -109 84q-52 3 -151 -153q-28 36 -28 85zM306 535q0 -157 62 -265q75 -132 220 -132q141 0 224 134q29 48 31 270l2 383h-280h-35q-121 -22 -179 -151q-45 -100 -45 -239z" />
<glyph unicode="&#xe4;" d="M107 550q0 231 110 378q123 163 347 163q44 0 58 -2l320 -4q101 -1 101 -61v-1006q0 -50 -89 -50q-87 0 -93 49v100q-108 -140 -288 -140q-227 0 -355 181q-111 158 -111 392zM261 1370q0 48 35 82.5t83 34.5q49 0 82.5 -34t33.5 -83q0 -51 -33 -85t-83 -34t-84 34.5 t-34 84.5zM306 535q0 -157 62 -265q75 -132 220 -132q141 0 224 134q29 48 31 270l2 383h-280h-35q-121 -21 -179 -151q-45 -100 -45 -239zM611 1370q0 49 34.5 83t83.5 34q48 0 82.5 -34.5t34.5 -82.5q0 -50 -34 -84.5t-83 -34.5q-50 0 -84 34.5t-34 84.5z" />
<glyph unicode="&#xe5;" d="M107 550q0 231 110 378q123 163 347 163q44 0 58 -2l320 -4q101 -1 101 -61v-1006q0 -50 -89 -50q-87 0 -93 50v99q-108 -140 -288 -140q-227 0 -355 181q-111 158 -111 392zM306 535q0 -157 62 -265q75 -132 220 -132q141 0 224 134q29 48 31 270l2 383h-280 q-28 0 -35 1q-121 -22 -179 -152q-45 -100 -45 -239zM335 1331q0 84 56 140.5t141 56.5q86 0 142.5 -57.5t56.5 -143.5q0 -85 -57 -141t-142 -56q-91 0 -144 55.5t-53 145.5zM446 1331q0 -37 25.5 -64t63.5 -27q37 0 63 26.5t26 62.5q0 38 -25.5 64.5t-63.5 26.5 q-37 0 -63 -26t-26 -63z" />
<glyph unicode="&#xe6;" horiz-adv-x="1901" d="M107 548q0 230 110 377q123 162 347 162q44 0 58 -2l320 -4q101 -1 101 -61v-22q120 88 298 88q216 0 353 -145q65 -69 91 -154q18 -58 29 -238q1 -4 -0.5 -15t-1.5 -22l-769 -45v-7q0 -137 87 -230t222 -93q193 0 258 180q28 49 102 49q101 0 101 -62q0 -7 -3 -15 q-43 -155 -171 -237q-119 -76 -288 -76q-185 0 -308 85v-43q0 -50 -89 -50q-87 0 -93 49v99q-108 -139 -288 -139q-227 0 -355 181q-111 157 -111 390zM306 533q0 -156 62 -264q75 -131 220 -131q141 0 224 133q23 37 28 179q-2 35 -2 72q0 53 6 101l1 298h-280q-28 0 -35 1 q-121 -22 -179 -151q-45 -99 -45 -238zM1049 639l567 34q-11 99 -56 152q-84 100 -217 100q-126 0 -206 -82q-77 -78 -88 -204z" />
<glyph unicode="&#xe7;" horiz-adv-x="1024" d="M73 524q0 369 234 498q116 63 256 63q258 0 375 -184q4 -5 4 -12q0 -39 -45 -72q-41 -30 -82 -30q-26 0 -41 21q-58 117 -203 117q-299 0 -299 -395t289 -395q186 0 243 176q26 38 64 38q42 0 78.5 -27t36.5 -67q0 -16 -11 -32q-112 -233 -370 -249v-27q172 -25 172 -152 q0 -100 -107 -155q-80 -41 -192 -41q-201 0 -201 74q0 24 17 47t41 23q5 0 11 -1q65 -4 93 -4q155 0 155 66q0 58 -137 60v117q-194 34 -294 194q-87 141 -87 349z" />
<glyph unicode="&#xe8;" d="M69 524q0 253 122 403q133 162 380 162q219 0 355 -146q64 -69 89 -153q10 -33 20 -130q10 -93 8 -116l-1 -10v-21l-770 -44q9 -146 84 -234q82 -97 226 -97q193 0 259 180q26 49 101 49q100 0 100 -62q0 -9 -3 -14q-40 -155 -170 -239q-120 -77 -287 -77 q-248 0 -384 153q-129 145 -129 396zM278 642l568 34q-9 97 -55 152q-83 101 -218 101q-128 0 -208 -82q-76 -78 -87 -205zM384 1410q0 37 49 66q43 25 83 25q34 0 46 -22l94 -183q7 -13 7 -21q0 -41 -43 -71q-38 -26 -81 -26t-59 31l-92 183q-4 12 -4 18z" />
<glyph unicode="&#xe9;" d="M69 524q0 253 122 403q133 162 380 162q219 0 355 -146q64 -69 89 -153q10 -33 20 -130q10 -93 8 -116l-1 -10v-21l-770 -44q9 -146 84 -234q82 -97 226 -97q193 0 259 180q26 49 101 49q100 0 100 -62q0 -9 -3 -14q-40 -155 -170 -239q-120 -77 -287 -77 q-248 0 -384 153q-129 145 -129 396zM278 642l568 34q-9 97 -55 152q-83 101 -218 101q-128 0 -208 -82q-76 -78 -87 -205zM507 1273q0 7 4 20l94 184q12 22 46 22q40 0 84 -26q51 -29 51 -65q-2 -7 -5 -18l-94 -184q-16 -30 -56 -30q-45 0 -82 26q-42 28 -42 71z" />
<glyph unicode="&#xea;" d="M69 524q0 253 122 403q133 162 380 162q219 0 355 -146q64 -69 89 -153q10 -33 20 -130q10 -93 8 -116l-1 -10v-21l-770 -44q9 -146 84 -234q82 -97 226 -97q193 0 259 180q26 49 101 49q100 0 100 -62q0 -9 -3 -14q-40 -155 -170 -239q-120 -77 -287 -77 q-248 0 -384 153q-129 145 -129 396zM233 1205q0 7 3 12l259 270q32 26 80 26q49 0 81 -26l274 -266v-7q0 -40 -101 -40q-59 0 -105 39l-149 125l-134 -131q-39 -39 -113 -39q-95 0 -95 37zM278 642l568 34q-9 97 -55 152q-83 101 -218 101q-128 0 -208 -82 q-76 -77 -87 -205z" />
<glyph unicode="&#xeb;" d="M69 524q0 253 122 402q133 163 380 163q219 0 355 -146q64 -69 89 -153q10 -34 20 -128.5t8 -117.5l-1 -10v-21l-770 -44q9 -146 84 -234q82 -97 226 -97q193 0 259 180q27 49 101 49q100 0 100 -62q0 -9 -3 -14q-40 -155 -170 -239q-120 -77 -287 -77q-248 0 -384 153 q-129 145 -129 396zM263 1370q0 48 35 82.5t83 34.5t82 -34.5t34 -82.5q0 -50 -33.5 -84.5t-82.5 -34.5q-50 0 -84 34.5t-34 84.5zM278 642l568 34q-9 97 -55 152q-83 101 -218 101q-128 0 -208 -82q-76 -78 -87 -205zM614 1370q0 49 34 83t83 34q48 0 82.5 -34.5 t34.5 -82.5q0 -50 -34 -84.5t-83 -34.5q-50 0 -83.5 34.5t-33.5 84.5z" />
<glyph unicode="&#xec;" horiz-adv-x="430" d="M89 1410q0 37 49 66q43 25 83 25q36 0 48 -22l94 -184q5 -13 5 -20q0 -42 -42 -71q-38 -26 -82 -26q-40 0 -56 31l-95 183q-4 12 -4 18zM128 38v971q0 64 95 64q100 0 100 -64v-971q0 -54 -104 -54q-91 0 -91 54z" />
<glyph unicode="&#xed;" horiz-adv-x="426" d="M110 1273q0 7 6 21l92 183q11 22 48 22q38 0 82 -25q50 -28 51 -66q-2 -7 -5 -18l-94 -184q-16 -30 -57 -30q-43 0 -81 27q-42 29 -42 70zM128 38v971q0 64 95 64q100 0 100 -64v-971q0 -54 -104 -54q-91 0 -91 54z" />
<glyph unicode="&#xee;" horiz-adv-x="425" d="M-53 1202q0 5 4 10l214 275q29 27 69 27t69 -27l225 -268q2 -5 3 -9q0 -40 -85 -40q-50 0 -88 39l-124 125l-109 -131q-32 -39 -97 -39q-81 0 -81 38zM129 37v972q0 64 95 64q100 0 100 -64v-972q-6 -54 -105 -54q-90 0 -90 54z" />
<glyph unicode="&#xef;" horiz-adv-x="416" d="M-71 1370q0 48 34 82.5t82 34.5q49 0 84 -34t35 -83q0 -50 -34.5 -84.5t-84.5 -34.5q-49 0 -82.5 35t-33.5 84zM128 38v971q0 64 95 64q100 0 100 -64v-971q0 -54 -104 -54q-91 0 -91 54zM280 1370q0 48 33.5 82.5t81.5 34.5q49 0 84 -34t35 -83q0 -50 -34.5 -84.5 t-84.5 -34.5t-82.5 34.5t-32.5 84.5z" />
<glyph unicode="&#xf0;" d="M82 491q0 206 115 338q122 139 325 139q130 0 227 -57l-135 236l-172 -95q-16 -6 -31 -6q-41 0 -69.5 35.5t-28.5 76.5q0 45 37 66l168 91l-31 53q-9 18 -9 36q0 40 35.5 68.5t76.5 28.5t65 -33l35 -58l174 96q16 9 33 9q38 0 66 -38q25 -34 25 -73q0 -42 -31 -69 l-170 -93q81 -137 161 -274q49 -95 95 -272l-2 -2q17 -67 17 -142q0 -195 -86 -346q-124 -219 -424 -219q-288 0 -411 254q-55 115 -55 250zM281 480q0 -135 66 -228q74 -104 204 -104q75 0 145 44q147 91 147 298q0 132 -76 217q-78 89 -209 89q-136 0 -210 -94 q-67 -85 -67 -222z" />
<glyph unicode="&#xf1;" d="M107 18v1006q0 60 100 61l320 4q14 2 58 2q224 0 347 -163q111 -147 111 -378v-527q-6 -54 -105 -54q-90 0 -90 54v527q0 129 -54 233q-62 122 -175 142q-9 -1 -35 0h-295l-1 -908q-6 -49 -93 -49q-88 0 -88 50zM278 1250q0 53 26 119q65 120 176 112q39 -3 136 -85 t111 -87q62 -6 156 172q18 -67 21 -115q6 -64 -30 -118q-71 -110 -173 -103q-35 3 -137 89q-98 83 -107 84q-53 3 -151 -154q-28 37 -28 86z" />
<glyph unicode="&#xf2;" d="M61 532q0 297 165 440q135 117 339 117q246 0 380 -151q126 -142 126 -389q0 -376 -244 -508q-123 -66 -262 -66q-251 0 -383 158q-121 146 -121 399zM262 532q0 -166 65 -269q78 -125 238 -125q162 0 241 128q66 104 66 273q0 162 -71 267q-82 123 -236 123 q-159 0 -238 -127q-65 -104 -65 -270zM384 1410q0 37 49 66q43 25 83 25q34 0 46 -22l94 -183q7 -13 7 -21q0 -41 -43 -71q-38 -26 -81 -26t-59 31l-92 183q-4 12 -4 18z" />
<glyph unicode="&#xf3;" d="M61 532q0 297 165 440q135 117 339 117q246 0 380 -151q126 -142 126 -389q0 -376 -244 -508q-123 -66 -262 -66q-251 0 -383 158q-121 146 -121 399zM262 532q0 -166 65 -269q78 -125 238 -125q162 0 241 128q66 104 66 273q0 162 -71 267q-82 123 -236 123 q-159 0 -238 -127q-65 -104 -65 -270zM437 1273q0 10 5 21l94 183q12 22 46 22q38 0 81 -25q53 -31 54 -66q-2 -7 -5 -18l-95 -184q-16 -30 -56 -30q-45 0 -82 26q-42 28 -42 71z" />
<glyph unicode="&#xf4;" d="M61 532q0 298 165 440q135 117 339 117q246 0 380 -151q126 -142 126 -389q0 -376 -244 -508q-123 -66 -262 -66q-251 0 -383 158q-121 146 -121 399zM233 1205q0 7 3 12l259 270q32 26 80 26q49 0 81 -26l274 -266v-7q0 -40 -101 -40q-59 0 -105 39l-149 125l-134 -131 q-39 -39 -113 -39q-95 0 -95 37zM262 532q0 -166 65 -269q78 -125 238 -125q162 0 241 128q66 104 66 273q0 162 -71 267q-82 123 -236 123q-159 0 -238 -127q-65 -104 -65 -270z" />
<glyph unicode="&#xf5;" d="M61 532q0 297 165 440q135 117 339 117q246 0 380 -151q126 -142 126 -389q0 -376 -244 -508q-123 -66 -262 -66q-251 0 -383 158q-121 146 -121 399zM245 1250q0 62 27 119q59 120 175 112q42 -3 142 -89q91 -78 105 -83q62 -6 157 173q17 -71 20 -116q6 -65 -29 -118 q-71 -110 -173 -103q-34 3 -136 89q-98 83 -109 84q-52 3 -151 -153q-28 36 -28 85zM262 532q0 -166 65 -269q78 -125 238 -125q162 0 241 128q66 104 66 273q0 162 -71 267q-82 122 -236 122q-159 0 -238 -126q-65 -104 -65 -270z" />
<glyph unicode="&#xf6;" d="M61 532q0 297 165 440q135 117 339 117q246 0 380 -151q126 -142 126 -389q0 -376 -244 -508q-123 -66 -262 -66q-251 0 -383 158q-121 146 -121 399zM262 532q0 -166 65 -269q78 -125 238 -125q162 0 241 128q66 104 66 273q0 162 -71 267q-82 123 -236 123 q-159 0 -238 -127q-65 -104 -65 -270zM263 1370q0 48 35 82.5t83 34.5t82 -34.5t34 -82.5q0 -50 -33.5 -84.5t-82.5 -34.5q-50 0 -84 34.5t-34 84.5zM614 1370q0 49 34 83t83 34q48 0 82.5 -34.5t34.5 -82.5q0 -50 -34 -84.5t-83 -34.5q-50 0 -83.5 34.5t-33.5 84.5z" />
<glyph unicode="&#xf7;" horiz-adv-x="1008" d="M60 725q0 102 55 102h773q67 0 67 -99q0 -94 -67 -94h-773q-55 0 -55 91zM372 411q0 48 34 82t83 34t83 -34t34 -82q0 -50 -34 -84t-83 -34q-50 0 -83.5 34t-33.5 84zM372 1069q0 49 34 83t83 34t83 -34t34 -83t-34 -83t-83 -34q-50 0 -83.5 34t-33.5 83z" />
<glyph unicode="&#xf8;" d="M61 531q0 296 166 438q139 119 339 119q57 0 108 -9l49 134q18 50 87 50q83 0 83 -46q0 -5 -2 -9l-66 -183q65 -35 116 -93q130 -148 130 -386q0 -373 -244 -507q-120 -65 -261 -65q-62 0 -116 10l-53 -146q-20 -41 -92 -41q-79 0 -79 38q0 4 2 9l71 195q-64 35 -114 95 q-124 150 -124 397zM261 531q0 -210 101 -315l256 706q-25 3 -52 3q-159 0 -239 -124q-66 -104 -66 -270zM506 141q28 -5 60 -5q160 0 239 128q66 106 66 273q0 161 -70 267q-18 28 -39 47z" />
<glyph unicode="&#xf9;" d="M107 509v527q5 54 104 54q91 0 91 -54v-527q0 -129 53 -233q62 -122 175 -143q9 1 35 1l295 -1l1 909q6 49 93 49q89 0 89 -50v-1006q0 -60 -101 -61l-320 -4q-14 -2 -58 -2q-224 0 -347 163q-110 147 -110 378zM425 1410q0 37 49 66q43 25 83 25q37 0 48 -22l92 -183 q7 -14 7 -21q0 -41 -43 -71q-38 -26 -81 -26t-59 31l-92 183q-4 12 -4 18z" />
<glyph unicode="&#xfa;" d="M107 509v527q5 54 104 54q91 0 91 -54v-527q0 -129 53 -233q62 -122 175 -143q9 1 35 1l295 -1l1 909q6 49 93 49q89 0 89 -50v-1006q0 -60 -101 -61l-320 -4q-14 -2 -58 -2q-224 0 -347 163q-110 147 -110 378zM454 1273q0 7 4 20l94 184q12 22 46 22q40 0 84 -26 q51 -29 51 -65q-2 -7 -5 -18l-94 -184q-16 -30 -56 -30q-45 0 -82 26q-42 28 -42 71z" />
<glyph unicode="&#xfb;" d="M107 509v528q5 53 104 53q91 0 91 -54v-527q0 -129 53 -233q62 -122 175 -143q9 1 35 1l295 -1l1 909q6 49 93 49q89 0 89 -50v-1006q0 -60 -101 -61l-320 -4q-14 -2 -58 -2q-224 0 -347 163q-110 147 -110 378zM229 1205q0 7 3 12l259 270q32 26 80 26t81 -26l274 -266 v-7q0 -40 -101 -40q-59 0 -105 39l-149 125l-134 -131q-39 -39 -113 -39q-95 0 -95 37z" />
<glyph unicode="&#xfc;" d="M107 509v527q5 54 104 54q91 0 91 -54v-527q0 -129 53 -233q62 -122 175 -143q9 1 35 1l295 -1l1 908q6 50 93 50q89 0 89 -50v-1006q0 -60 -101 -61l-320 -4q-14 -2 -58 -2q-224 0 -347 163q-110 147 -110 378zM259 1370q0 48 35 82.5t83 34.5q49 0 82.5 -34t33.5 -83 q0 -51 -33 -85t-83 -34t-84 34.5t-34 84.5zM609 1370q0 48 35 82.5t83 34.5t82.5 -34.5t34.5 -82.5q0 -50 -34 -84.5t-83 -34.5q-50 0 -84 34.5t-34 84.5z" />
<glyph unicode="&#xfd;" horiz-adv-x="1073" d="M86 -234q0 35 43 60q37 22 75 22q37 0 60 -26q34 -39 39 -42q63 -48 198 -48q249 0 298 183q5 19 8 55l-205 -3q-14 -2 -58 -2q-224 0 -347 164q-110 147 -110 378v528q5 54 104 54q91 0 91 -54v-528q0 -129 53 -234q62 -122 175 -142q9 1 35 1l267 -1v11q7 78 8 199 l1 700q6 49 93 49q89 0 89 -50v-12q7 -13 7 -30v-851q0 -198 -31 -294q-89 -284 -477 -284q-311 0 -407 171q-9 12 -9 26zM401 1272q0 7 4 21l94 184q12 22 46 22q40 0 84 -26q51 -29 51 -65q-2 -7 -5 -18l-95 -185q-16 -30 -56 -30q-44 0 -82 26q-41 29 -41 71z" />
<glyph unicode="&#xfe;" horiz-adv-x="1102" d="M102 -339v1712q0 50 88 50q87 0 94 -50v-416q107 140 287 140q227 0 355 -182q112 -158 112 -392q0 -232 -111 -378q-123 -164 -347 -164q-170 0 -283 129v-449q0 -61 -95 -61q-100 0 -100 61zM302 531q0 -187 43 -260q77 -128 219 -128q144 0 216 131q59 105 59 264 q0 157 -63 265q-75 132 -220 132q-141 0 -224 -134q-30 -50 -30 -270z" />
<glyph unicode="&#xff;" horiz-adv-x="1098" d="M86 -234q0 35 43 60q37 22 75 22q37 0 60 -26q34 -39 39 -42q63 -48 198 -48q249 0 298 183q5 19 8 55l-205 -3q-14 -2 -58 -2q-224 0 -347 164q-110 147 -110 378v528q5 54 104 54q91 0 91 -54v-528q0 -129 53 -234q62 -122 175 -142q9 1 35 1l267 -1v11q7 78 8 199 l1 700q6 49 93 49q89 0 89 -50v-12q7 -13 7 -30v-851q0 -198 -31 -294q-89 -284 -477 -284q-311 0 -407 171q-9 12 -9 26zM257 1369q0 48 35 83t83 35t82.5 -35t34.5 -83q0 -49 -34 -83.5t-83 -34.5q-50 0 -84 34t-34 84zM608 1369q0 49 34 83.5t83 34.5q48 0 82.5 -35 t34.5 -83q0 -49 -34 -83.5t-83 -34.5q-50 0 -83.5 34t-33.5 84z" />
<glyph unicode="&#x152;" horiz-adv-x="2145" d="M92 714q0 347 175 555q189 223 534 223q112 0 212 -29h992q70 0 70 -94q0 -92 -70 -92h-687q154 -166 184 -430h288q82 0 82 -97q0 -88 -82 -88h-284q-19 -295 -194 -479h697q90 0 90 -88q0 -40 -25.5 -69t-64.5 -29h-1021v1q-91 -23 -188 -23q-205 0 -368 96 q-168 98 -256 278q-84 172 -84 365zM307 711q0 -245 121 -395q131 -162 371 -162q105 0 189 33v1091q-86 34 -186 34q-256 0 -384 -179q-111 -156 -111 -422zM1197 360q81 125 94 302h-94v-302zM1197 847h90q-19 156 -90 263v-263z" />
<glyph unicode="&#x153;" horiz-adv-x="1909" d="M61 531q0 295 166 437q139 118 339 118q271 0 410 -200q136 200 405 200q216 0 353 -145q65 -69 91 -154q18 -58 29 -238q1 -4 -0.5 -14.5t-1.5 -22.5l-770 -45q10 -144 85 -232q83 -98 225 -98q193 0 258 180q28 49 102 49q101 0 101 -62q0 -6 -3 -15 q-43 -155 -171 -237q-119 -76 -288 -76q-280 0 -417 196q-135 -196 -408 -196q-249 0 -381 156q-124 146 -124 399zM261 531q0 -166 66 -269q79 -125 239 -125t239 128q66 105 66 272q0 161 -70 266q-81 121 -235 121q-159 0 -239 -124q-66 -104 -66 -269zM1089 640l567 33 q-11 99 -56 152q-84 100 -217 100q-126 0 -206 -82q-77 -78 -88 -203z" />
<glyph unicode="&#x178;" horiz-adv-x="1366" d="M42 1441q0 34 41 53q33 15 71 15q95 0 141 -76l375 -619l391 610q51 81 149 81t98 -60q0 -14 -10 -29l-524 -816v-562q0 -61 -108 -61q-102 0 -102 61v562l-520 826q-2 6 -2 15zM378 1656q0 49 34 83.5t82 34.5q49 0 82.5 -34t33.5 -84t-33 -84.5t-83 -34.5 q-51 0 -83.5 34t-32.5 85zM726 1656q0 48 35 83t83 35q49 0 82.5 -34t33.5 -84t-33 -84.5t-83 -34.5t-84 34.5t-34 84.5z" />
<glyph unicode="&#x2c6;" horiz-adv-x="682" d="M10 1216q0 6 4 11l257 261q33 26 81 26t82 -26l269 -256q3 -2 4 -7q0 -20 -46 -31q-33 -8 -54 -8q-60 0 -105 36l-150 121l-133 -126q-38 -37 -114 -37q-95 0 -95 36z" />
<glyph unicode="&#x2dc;" horiz-adv-x="682" d="M22 1258q0 48 26 116q64 115 176 106q38 -3 142.5 -84t102.5 -81q61 -6 158 166q12 -49 22 -111q4 -61 -31 -114q-69 -108 -173 -99q-35 3 -138 86q-99 80 -107 80q-53 5 -149 -148q-29 38 -29 83z" />
<glyph unicode="&#x2000;" horiz-adv-x="938" />
<glyph unicode="&#x2001;" horiz-adv-x="1876" />
<glyph unicode="&#x2002;" horiz-adv-x="938" />
<glyph unicode="&#x2003;" horiz-adv-x="1876" />
<glyph unicode="&#x2004;" horiz-adv-x="625" />
<glyph unicode="&#x2005;" horiz-adv-x="469" />
<glyph unicode="&#x2006;" horiz-adv-x="312" />
<glyph unicode="&#x2007;" horiz-adv-x="312" />
<glyph unicode="&#x2008;" horiz-adv-x="234" />
<glyph unicode="&#x2009;" horiz-adv-x="375" />
<glyph unicode="&#x200a;" horiz-adv-x="104" />
<glyph unicode="&#x2010;" horiz-adv-x="851" d="M60 725q0 96 55 96h623q67 0 67 -93q0 -88 -67 -88h-623q-55 0 -55 85z" />
<glyph unicode="&#x2011;" horiz-adv-x="851" d="M60 725q0 96 55 96h623q67 0 67 -93q0 -88 -67 -88h-623q-55 0 -55 85z" />
<glyph unicode="&#x2012;" horiz-adv-x="851" d="M60 725q0 96 55 96h623q67 0 67 -93q0 -88 -67 -88h-623q-55 0 -55 85z" />
<glyph unicode="&#x2013;" d="M-17 527q0 96 56 96h1043q66 0 66 -93q0 -88 -66 -88h-1043q-56 0 -56 85z" />
<glyph unicode="&#x2014;" horiz-adv-x="2048" d="M-17 527q0 96 56 96h1953q66 0 66 -93q0 -88 -66 -88h-1953q-56 0 -56 85z" />
<glyph unicode="&#x2018;" horiz-adv-x="455" d="M98 1108q0 2 3 19q17 109 22 133q17 86 43 125q45 69 139 107q62 -7 59 -58q0 -9 -7 -29q-104 -44 -124 -182q46 -4 74 -38t24 -78q-3 -48 -39 -81.5t-85 -33.5q-50 0 -81.5 34t-27.5 82z" />
<glyph unicode="&#x2019;" horiz-adv-x="455" d="M64 1046q0 15 7 33q104 44 123 182q-46 4 -74.5 38t-24.5 78q3 48 39 81.5t85 33.5q50 0 81.5 -34t27.5 -82q0 -3 -1 -6l-2 -12q-16 -114 -20 -134q-17 -84 -43 -125q-44 -69 -139 -107q-59 6 -59 54z" />
<glyph unicode="&#x201a;" horiz-adv-x="569" d="M159 -232q0 11 5 29q101 43 111 182q-45 4 -75.5 37.5t-30.5 78.5q0 48 34 81.5t83 33.5q50 0 83.5 -34t33.5 -82q-1 -3 -3 -18q-8 -108 -11 -133q-12 -84 -35 -125q-40 -69 -133 -108q-62 7 -62 58z" />
<glyph unicode="&#x201c;" horiz-adv-x="782" d="M102 1109q2 9 18 96q22 126 61 181q48 69 143 108q58 -6 58 -50q0 -17 -9 -38q-106 -43 -131 -182q45 -3 71.5 -37.5t21.5 -78.5q-4 -47 -42 -80.5t-87 -34.5q-51 -1 -80.5 33t-23.5 83zM432 1111q2 9 18 96q22 126 61 181q48 69 143 108q58 -6 58 -50q0 -17 -9 -38 q-106 -44 -131 -182q45 -3 71.5 -37.5t21.5 -78.5q-4 -47 -42 -80.5t-87 -34.5q-51 -1 -80.5 33t-23.5 83z" />
<glyph unicode="&#x201d;" horiz-adv-x="740" d="M60 1053q0 9 7 29q104 43 124 181q-47 4 -74.5 38t-23.5 80q4 48 39 80.5t85 32.5t81.5 -34.5t27.5 -82.5q-2 -8 -4 -18q-15 -108 -20 -133q-17 -84 -44 -125q-45 -69 -139 -107q-62 8 -59 59zM390 1051q0 9 7 30q104 42 124 180q-47 4 -74.5 38t-23.5 80q4 48 39 80.5 t85 32.5t81.5 -34t27.5 -82q-1 -5 -4 -18q-15 -109 -20 -134q-17 -84 -44 -125q-45 -69 -139 -106q-62 7 -59 58z" />
<glyph unicode="&#x201e;" horiz-adv-x="808" d="M139 -232q0 11 5 29q101 43 111 182q-45 4 -75.5 37.5t-30.5 78.5q0 48 34 81.5t83 33.5q50 0 83.5 -34t33.5 -82q-1 -3 -3 -18q-8 -108 -11 -133q-12 -84 -35 -125q-40 -69 -133 -108q-62 7 -62 58zM489 -232q0 11 5 29q101 43 111 182q-45 4 -75.5 37.5t-30.5 78.5 q0 48 34 81.5t83 33.5q50 0 83.5 -34t33.5 -82q-1 -3 -3 -18q-8 -108 -11 -133q-12 -84 -35 -125q-40 -69 -133 -108q-62 7 -62 58z" />
<glyph unicode="&#x2022;" horiz-adv-x="648" d="M128 721q0 83 55.5 137.5t141.5 54.5t141 -54.5t55 -137.5q0 -85 -55.5 -139t-140.5 -54q-87 0 -142 54.5t-55 138.5zM174 721q0 -63 43 -105.5t108 -42.5q67 0 108.5 42t41.5 106t-43 105.5t-107 41.5t-107.5 -42.5t-43.5 -104.5zM186 721q0 57 40 96t99 39 q58 0 98 -39.5t40 -95.5q0 -58 -40 -97t-98 -39q-59 0 -99 39.5t-40 96.5zM223 721q0 -43 29 -72t73 -29q43 0 72.5 29.5t29.5 71.5t-30 71t-72 29q-44 0 -73 -28.5t-29 -71.5zM229 721q0 39 27.5 66t67.5 27t68 -27t28 -66q0 -40 -28 -67t-68 -27q-41 0 -68 27t-27 67z" />
<glyph unicode="&#x2026;" horiz-adv-x="1919" d="M214 104q0 46 34 78.5t83 32.5t83 -32.5t34 -78.5q0 -48 -34.5 -80t-82.5 -32q-50 0 -83.5 32t-33.5 80zM859 103q0 46 34 78.5t83 32.5t83 -32.5t34 -78.5q0 -48 -34.5 -80t-82.5 -32q-50 0 -83.5 32.5t-33.5 79.5zM1502 98q0 47 34 79t83 32t83 -32t34 -79 q0 -48 -34.5 -80t-82.5 -32q-50 0 -83.5 32.5t-33.5 79.5z" />
<glyph unicode="&#x202f;" horiz-adv-x="375" />
<glyph unicode="&#x2039;" horiz-adv-x="622" d="M46 727q0 59 62 87l329 353q14 14 34 14q39 0 68 -39q26 -36 26 -76q0 -55 -57 -86l-186 -256l186 -259q56 -23 56 -84q0 -41 -23 -77q-26 -40 -66 -40q-19 0 -37 14l-331 359q-61 36 -61 90z" />
<glyph unicode="&#x203a;" horiz-adv-x="622" d="M46 1066q0 39 26 76q30 39 68 39q20 0 34 -14l329 -353q62 -28 62 -87q0 -54 -61 -90l-331 -359q-18 -14 -38 -14q-39 0 -65 41q-22 35 -22 76q0 61 55 84l186 259l-186 256q-57 31 -57 86z" />
<glyph unicode="&#x205f;" horiz-adv-x="469" />
<glyph unicode="&#x2122;" horiz-adv-x="1575" d="M49 1077q0 67 45 67h529q43 0 43 -72q0 -61 -43 -61h-191v-668q0 -43 -75 -43q-72 0 -72 43v668h-191q-45 0 -45 66zM718 353v738q0 55 65 55q10 0 26 -2q80 -10 119 -74l200 -415l198 405q40 82 131 82q70 0 70 -51v-738q0 -56 -78 -56q-64 0 -64 56v508l-199 -394 q-27 -39 -66 -39q-40 0 -66 39l-193 403v-517q0 -53 -81 -53q-62 0 -62 53z" />
<glyph unicode="&#x25fc;" horiz-adv-x="1095" d="M0 0v1095h1095v-1095h-1095z" />
</font>
</defs>
</svg>
